<svg xmlns:dc="http://purl.org/dc/elements/1.1/" xmlns:cc="http://creativecommons.org/ns#" xmlns:rdf="http://www.w3.org/1999/02/22-rdf-syntax-ns#" xmlns:svg="http://www.w3.org/2000/svg" xmlns="http://www.w3.org/2000/svg" xmlns:sodipodi="http://sodipodi.sourceforge.net/DTD/sodipodi-0.dtd" xmlns:inkscape="http://www.inkscape.org/namespaces/inkscape" width="100%" height="auto" viewBox="0 0 36.682194 32.241554" version="1.1" id="svg474" inkscape:version="0.92.2 (5c3e80d, 2017-08-06)" sodipodi:docname="restoration-hammer.svg">
  <defs id="defs468"></defs>
  <sodipodi:namedview id="base" pagecolor="#ffffff" bordercolor="#666666" borderopacity="1.0" inkscape:pageopacity="0.0" inkscape:pageshadow="2" inkscape:zoom="0.35" inkscape:cx="49.32067" inkscape:cy="312.35755" inkscape:document-units="mm" inkscape:current-layer="layer1" showgrid="false" fit-margin-top="0" fit-margin-left="0" fit-margin-right="0" fit-margin-bottom="0" inkscape:window-width="2560" inkscape:window-height="1017" inkscape:window-x="1042" inkscape:window-y="-8" inkscape:window-maximized="1"></sodipodi:namedview>
  <metadata id="metadata471">
    <rdf:rdf>
      <cc:work rdf:about="">
        <dc:format>image/svg+xml</dc:format>
        <dc:type rdf:resource="http://purl.org/dc/dcmitype/StillImage"></dc:type>
        <dc:title></dc:title>
      </cc:work>
    </rdf:rdf>
  </metadata>
  <g inkscape:label="Layer 1" inkscape:groupmode="layer" id="layer1" transform="translate(-92.783906,-138.76019)">
    <path d="m 107.42521,155.18768 c 0.0638,0.53658 0.10442,1.09679 0.54081,1.26153 -0.93098,1.71239 -2.18369,2.60492 -4.1462,2.70405 0.22437,1.36595 -0.38029,1.90323 -1.08161,2.3435 -1.26295,-1.20086 -2.64654,-2.28036 -3.605394,-3.78601 0.65969,-1.44674 3.733804,-0.32385 2.884664,-2.88396 1.72262,-0.90734 2.65783,-3.34892 5.40773,-3.42512 1.22414,-0.0339 4.25097,1.10243 3.78566,2.16288 -0.42369,0.96661 -3.67242,-1.09361 -3.78566,1.62313" style="fill-opacity:1;fill-rule:evenodd;stroke:none;stroke-width:0.35277775" id="path856" inkscape:connector-curvature="0"></path>
    <path d="m 118.06125,151.58169 c -0.71191,0.9712 -1.91735,2.16888 -2.79435,2.97498 0.5408,1.50213 1.40052,2.02424 2.61373,2.79435 0.90663,-0.77646 1.99213,-1.55363 2.79435,-2.43417 0.60113,1.80235 -0.83467,4.10563 -2.97427,4.41678 -0.55774,0.0808 -1.31551,-0.30833 -1.8027,-0.18027 -0.55597,0.14605 -1.65205,1.89266 -2.01295,1.59244 -0.91898,-0.76623 -1.44215,-1.26224 -2.28353,-1.98331 0.72108,-1.14159 1.2446,-1.39912 1.59244,-2.1329 -0.79974,-3.30447 1.63654,-5.77391 4.86728,-5.0479" style="fill-opacity:1;fill-rule:evenodd;stroke:none;stroke-width:0.35277775" id="path860" inkscape:connector-curvature="0"></path>
    <path d="m 119.32285,167.80636 c -0.20743,2.10715 -1.82739,3.15348 -2.70369,3.06494 -0.83855,-0.0857 -2.09126,-2.08527 -3.06493,-3.24556 -1.74166,-2.07609 -2.98591,-4.72087 -4.50638,-1.80269 0.77293,3.29953 -1.60867,5.78591 -4.86763,5.04825 0.71226,-0.9712 1.82739,-1.53882 2.70439,-2.34421 -0.37712,-1.54587 -1.06644,-2.77918 -2.52377,-3.24485 -1.11125,0.51153 -2.05316,1.19168 -2.88431,1.98332 -0.41628,-2.52801 1.99461,-4.7244 4.86728,-3.96593 0.94297,-0.25929 1.35184,-0.93169 1.98261,-1.62278 -0.46249,-0.85937 -1.23931,-1.645 -1.89266,-2.31352 0.78141,-1.02129 0.78141,-0.84102 1.53247,-1.65241 4.19594,2.95487 7.58931,6.71266 11.35662,10.09544" style="fill-opacity:1;fill-rule:evenodd;stroke:none;stroke-width:0.35277775" id="path864" inkscape:connector-curvature="0"></path>
    <path d="m 92.783906,157.10108 4.94453,0.1337 13.697314,-13.22987 13.16284,12.96246 4.87751,0.0466 -4.61363,-4.76462 v -12.6118 h -5.44089 v 7.54733 l -7.89799,-8.42469 z" style="fill-opacity:1;fill-rule:nonzero;stroke:none;stroke-width:0.35277775" id="path868" inkscape:connector-curvature="0"></path>
  </g>
</svg>