<?xml version="1.0" encoding="UTF-8" standalone="no"?>
<!-- Created with Inkscape (http://www.inkscape.org/) -->

<svg
   xmlns:dc="http://purl.org/dc/elements/1.1/"
   xmlns:cc="http://creativecommons.org/ns#"
   xmlns:rdf="http://www.w3.org/1999/02/22-rdf-syntax-ns#"
   xmlns:svg="http://www.w3.org/2000/svg"
   xmlns="http://www.w3.org/2000/svg"
   xmlns:sodipodi="http://sodipodi.sourceforge.net/DTD/sodipodi-0.dtd"
   xmlns:inkscape="http://www.inkscape.org/namespaces/inkscape"
   id="svg4136"
   version="1.1"
   inkscape:version="0.91 r13725"
   xml:space="preserve"
   width="729.96051"
   height="970.4682"
   viewBox="0 0 729.96051 970.4682"
   sodipodi:docname="ppr-logo-vert.svg"><metadata
     id="metadata4142"><rdf:RDF><cc:Work
         rdf:about=""><dc:format>image/svg+xml</dc:format><dc:type
           rdf:resource="http://purl.org/dc/dcmitype/StillImage" /><dc:title></dc:title></cc:Work></rdf:RDF></metadata><defs
     id="defs4140"><clipPath
       clipPathUnits="userSpaceOnUse"
       id="clipPath4150"><path
         d="M 0,800 1000,800 1000,0 0,0 0,800 Z"
         id="path4152"
         inkscape:connector-curvature="0" /></clipPath></defs><sodipodi:namedview
     pagecolor="#ffffff"
     bordercolor="#666666"
     borderopacity="1"
     objecttolerance="10"
     gridtolerance="10"
     guidetolerance="10"
     inkscape:pageopacity="0"
     inkscape:pageshadow="2"
     inkscape:window-width="1920"
     inkscape:window-height="1027"
     id="namedview4138"
     showgrid="false"
     inkscape:zoom="0.86"
     inkscape:cx="364.9805"
     inkscape:cy="485.23393"
     inkscape:window-x="-8"
     inkscape:window-y="-8"
     inkscape:window-maximized="1"
     inkscape:current-layer="g4144"
     fit-margin-top="0"
     fit-margin-left="0"
     fit-margin-right="0"
     fit-margin-bottom="0" /><g
     id="g4144"
     inkscape:groupmode="layer"
     inkscape:label="Portland Painting &amp; Restoration Brush"
     transform="matrix(1.25,0,0,-1.25,-260.0195,985.23425)"><g
       id="g4146"><g
         id="g4148"
         clip-path="url(#clipPath4150)"><g
           id="g4154"
           transform="translate(444.7129,605.3784)"><path
             d="m 0,0 c 0.818,-1.663 1.314,-2.625 1.546,-2.946 2.16,2.188 4.378,4.347 6.624,6.506 2.8,2.48 5.572,3.705 8.344,3.676 1.75,0.029 3.15,-0.904 4.2,-2.772 1.225,-2.159 2.16,-6.127 2.772,-11.874 0.204,-1.663 0,-3.472 -0.612,-5.427 -0.643,-2.159 -1.546,-3.53 -2.801,-4.171 -1.225,1.137 -1.897,2.188 -2.013,3.092 -0.205,0.846 -0.409,1.721 -0.613,2.626 -0.203,0.642 -0.203,1.663 0,3.092 0.116,1.459 0.175,2.422 0.175,2.947 -0.234,1.838 -1.108,2.772 -2.654,2.772 -2.568,0 -5.66,-3.181 -9.25,-9.57 -3.734,-6.185 -6.242,-12.837 -7.584,-19.956 -0.118,-2.246 -0.264,-4.579 -0.468,-6.943 -0.408,-2.801 -1.196,-4.814 -2.304,-6.039 -1.138,0.526 -2.392,1.283 -3.706,2.334 -1.984,1.633 -3.004,3.034 -3.122,4.172 -0.088,0.496 0.146,2.772 0.788,6.797 1.138,5.252 2.422,11.758 3.88,19.489 0.496,4.318 0.906,7.09 1.226,8.344 C -4.96,-1.4 -3.938,0.526 -2.48,1.868 -1.458,1.868 -0.642,1.226 0,0 m -29.087,5.106 c 2.597,1.342 4.289,1.984 5.106,1.984 6.185,0.234 9.803,-4.026 10.823,-12.808 0.614,-5.456 0.35,-11.495 -0.758,-18.088 -1.05,-4.551 -3.472,-9.219 -7.264,-14.063 -4.347,-5.367 -8.578,-8.051 -12.692,-8.051 -4.025,0 -7.264,2.158 -9.743,6.505 -1.839,3.18 -3.034,7.061 -3.56,11.582 -0.408,3.618 0.846,8.607 3.734,14.996 2.451,5.281 4.989,9.453 7.557,12.517 1.662,1.984 3.908,3.763 6.797,5.426 m 80.231,39.415 c 0.729,0.467 1.459,0.467 2.159,0 l 1.254,-2.947 C 55.374,39.911 55.899,38.423 56.103,37.11 56.307,34.951 54.819,29.321 51.611,20.248 47.817,9.862 45.629,3.035 45.133,-0.146 l 0.905,-0.933 c 2.889,0.729 5.951,1.225 9.131,1.546 4.436,0.292 8.87,0.671 13.304,1.08 -0.118,-0.204 -0.059,-0.584 0.146,-1.08 0.408,-0.321 0.613,-0.554 0.613,-0.787 0.116,-0.496 -0.322,-1.226 -1.226,-2.159 -7.848,-1.547 -13.683,-3.122 -17.475,-4.785 -2.684,-1.226 -5.456,-2.83 -8.343,-4.785 0.204,-1.138 0,-2.947 -0.613,-5.426 -0.642,-2.568 -0.876,-4.435 -0.788,-5.573 0.116,-0.496 0.262,-1.254 0.466,-2.305 0.322,-1.137 0.526,-1.896 0.643,-2.305 0.087,-1.254 -0.234,-4.376 -0.963,-9.452 -0.906,-5.864 -2.101,-8.81 -3.531,-8.81 -1.459,0 -3.092,1.459 -4.96,4.346 -1.428,2.364 -2.246,4.173 -2.45,5.397 -0.029,0.409 0.613,3.355 1.838,8.811 1.022,5.485 1.545,8.461 1.545,8.957 -0.115,0.437 -0.523,1.05 -1.253,1.867 -0.701,0.934 -1.08,1.546 -1.051,1.838 -1.05,2.48 -1.662,4.668 -1.867,6.506 -0.117,0.526 0.467,1.605 1.692,3.268 1.138,1.546 1.897,2.305 2.333,2.305 0.497,0 0.935,0.058 1.227,0.146 l 1.079,0 c 0.817,0 2.072,3.413 3.706,10.21 0.817,3.501 1.633,7.002 2.48,10.503 1.633,5.282 3.646,13.013 6.038,23.194 0.526,0.875 1.051,1.488 1.546,1.838 0.584,0.263 1.138,0.613 1.634,1.08 0.088,0.058 0.146,0.117 0.205,0.175 M 82.826,43.12 c 0.117,0.934 0.877,2.13 2.334,3.56 1.342,1.458 2.276,2.188 2.772,2.188 1.138,0 2.48,-0.846 4.027,-2.48 l 1.867,-4.347 C 91.871,35.651 88.838,23.865 84.693,6.652 79.646,-13.77 77.371,-26.957 77.896,-32.909 c 0.088,-1.751 0.758,-3.763 2.014,-6.039 1.342,-2.276 1.955,-3.443 1.867,-3.559 0.203,-1.343 -0.466,-2.014 -2.013,-2.014 l -2.19,0 c -1.953,0 -3.734,1.664 -5.396,4.96 -1.225,2.363 -1.897,4.172 -2.014,5.397 -0.408,3.939 -0.146,8.549 0.789,13.917 1.838,10.62 4.463,22.932 7.877,36.935 2.363,8.986 3.705,17.797 3.996,26.432 m 151.973,-6.33 c 0,-0.322 0.291,-0.876 0.931,-1.693 0.499,-0.817 0.817,-1.4 0.936,-1.692 l 0,-0.496 c -2.391,-3.267 -5.895,-11.116 -10.533,-23.485 -1.75,-4.639 -3.238,-10.299 -4.463,-17.009 -1.547,-8.023 -2.072,-14.004 -1.547,-17.913 0.496,-2.801 1.168,-5.106 2.014,-6.973 1.75,-3.793 4.172,-5.806 7.263,-6.01 2.862,-0.321 6.274,1.137 10.182,4.317 3.006,2.393 5.982,4.844 8.984,7.411 0.293,0.321 0.907,0.117 1.838,-0.613 0.121,-0.292 0.147,-0.554 0.176,-0.758 0.09,-0.846 -0.846,-3.064 -2.799,-6.652 -1.021,-1.662 -2.916,-3.705 -5.72,-6.185 -3.178,-2.567 -6.038,-4.23 -8.489,-4.959 -1.049,-0.41 -2.801,-0.41 -5.279,0 -2.365,0.437 -4.172,0.991 -5.398,1.691 -5.661,3.414 -9.014,9.861 -10.036,19.343 -0.439,3.005 -0.466,5.718 -0.175,8.198 -1.633,-4.347 -4.786,-9.482 -9.424,-15.462 -6.067,-7.615 -11.582,-11.582 -16.541,-11.904 -1.139,0 -2.772,0.992 -4.932,2.948 -0.435,0.378 -0.846,0.729 -1.166,1.079 -0.205,-0.176 -0.381,-0.322 -0.555,-0.467 -2.976,-2.801 -5.455,-4.173 -7.412,-4.173 -6.474,0 -10.619,4.377 -12.369,13.129 -0.408,1.867 -0.262,5.164 0.469,9.891 l 0.932,6.797 c -3.297,-3.997 -5.922,-7.352 -7.907,-10.036 -3.15,-4.289 -5.455,-7.848 -6.826,-10.707 -0.029,-0.116 -0.058,-0.204 -0.088,-0.321 -0.408,-1.167 -1.166,-2.071 -2.334,-2.654 -1.808,-1.226 -4.025,-2.684 -6.593,-4.406 -3.151,-2.043 -5.602,-3.122 -7.352,-3.151 -1.779,-0.059 -2.83,-0.087 -3.123,-0.146 -0.32,-0.029 -1.02,0.029 -2.07,0.233 -1.051,0.176 -2.772,1.197 -5.135,3.064 -1.955,1.546 -3.238,2.83 -3.881,3.851 -2.041,3.414 -3.236,6.71 -3.529,9.919 -0.116,1.138 -0.176,2.305 -0.176,3.56 -3.297,-3.297 -6.592,-6.652 -9.891,-10.065 -4.14,-3.589 -8.197,-5.397 -12.193,-5.397 -1.342,0 -2.859,1.224 -4.494,3.704 -1.457,2.159 -2.276,3.968 -2.479,5.397 -0.613,5.164 2.684,12.166 9.891,21.036 7.322,8.986 13.303,13.449 17.941,13.449 1.43,0 2.451,-0.525 3.092,-1.546 0.701,-1.021 1.373,-2.013 2.014,-2.947 0.408,1.255 0.875,2.539 1.371,3.881 0.933,2.158 1.926,3.238 2.945,3.238 1.139,0 2.627,-0.788 4.494,-2.334 0.614,-1.021 0.555,-2.976 -0.146,-5.864 -1.342,-2.48 -2.334,-4.697 -2.946,-6.652 -0.642,-2.159 -1.255,-5.368 -1.867,-9.57 -0.408,-3.705 -0.554,-5.98 -0.466,-6.797 0.32,-2.801 1.224,-5.368 2.8,-7.761 1.953,-3.063 4.319,-4.609 7.09,-4.609 2.041,0 4.463,1.487 7.264,4.434 0.088,1.547 0.613,5.66 1.545,12.4 1.051,7.935 2.015,14.237 2.949,18.876 0.115,0.817 0.728,1.546 1.838,2.159 1.137,0.525 2.129,0.788 2.945,0.758 0.408,0.03 1.022,-0.233 1.867,-0.758 1.225,-0.73 1.897,-1.08 2.014,-1.08 0.408,-1.546 0.088,-4.376 -0.934,-8.519 -1.138,-4.318 -1.664,-6.943 -1.546,-7.877 0.087,-0.408 0.261,-0.7 0.466,-0.934 1.633,1.78 3.852,4.756 6.653,8.986 2.976,4.231 5.25,7.148 6.797,8.811 2.568,2.48 5.105,3.705 7.556,3.705 1.75,0 2.801,-1.459 3.123,-4.347 0.408,-2.976 -0.437,-7.935 -2.48,-14.821 -1.78,-6.914 -2.481,-11.611 -2.188,-14.062 0.524,-4.347 2.42,-6.506 5.746,-6.506 0.731,0 2.217,0.612 4.463,1.78 -0.261,5.63 2.889,13.42 9.424,23.427 7.441,11.437 14.385,17.301 20.891,17.622 1.224,0 1.953,-0.058 2.158,-0.146 0.203,-0.117 1.225,-1.197 3.092,-3.268 2.248,5.894 4.582,11.758 6.943,17.622 3.94,9.598 7.703,15.725 11.293,18.38 1.34,-0.496 2.361,-0.963 3.092,-1.371 m 21.18,135.574 -15.928,10.445 -32.473,-0.088 -78.131,-10.123 c -1.779,-0.204 -3.529,-0.526 -5.191,-0.933 -13.977,-3.123 -27.805,-6.652 -41.488,-10.591 -3.967,-1.255 -7.848,-2.48 -11.582,-3.617 -3.791,-1.139 -7.674,-2.306 -11.668,-3.561 -6.303,-2.304 -12.575,-4.58 -18.877,-6.884 -3.034,-1.197 -5.981,-2.334 -8.811,-3.414 l 0.584,0.321 c -6.36,-3.296 -9.774,-5.134 -10.241,-5.485 L -5.28,118.508 5.252,86.503 C 5.66,85.19 5.66,83.907 5.252,82.623 4.814,81.34 4.085,80.318 3.006,79.531 1.896,78.772 0.7,78.364 -0.642,78.393 -1.984,78.364 -3.18,78.772 -4.26,79.531 L -31.625,99.486 -58.669,79.589 c -1.08,-0.788 -2.248,-1.196 -3.56,-1.196 -1.372,-0.029 -2.626,0.379 -3.706,1.138 -1.108,0.787 -1.838,1.809 -2.276,3.092 -0.408,1.313 -0.408,2.597 0,3.88 l 10.358,32.005 -27.25,19.926 c -1.108,0.817 -1.837,1.868 -2.246,3.151 -0.438,1.284 -0.438,2.539 0,3.793 0.409,1.284 1.138,2.334 2.246,3.093 1.11,0.787 2.334,1.167 3.706,1.167 l 13.828,-0.146 -9.044,15.841 -45.979,-9.277 1.4,-19.168 -3.734,-68.094 -8.198,-38.89 2.334,-23.66 c -1.576,-1.196 -3.18,-2.218 -4.784,-3.064 -2.16,-0.291 -3.822,-1.721 -5.048,-4.259 -1.458,-2.363 -2.072,-5.222 -1.838,-8.665 l -3.704,-23.661 8.256,-38.335 9.044,0 c 0.146,0.437 0.262,0.875 0.38,1.313 2.596,9.132 4.404,15.229 5.426,18.322 0.583,2.1 1.05,3.821 1.4,5.105 0.262,1.021 0.466,1.779 0.612,2.333 1.634,7.819 6.128,22.611 13.45,44.347 7.701,22.697 12.195,36.701 13.45,42.069 0.087,1.022 1.487,2.013 4.171,2.918 2.772,0.933 5.048,1.4 6.798,1.4 2.16,0 5.398,-0.671 9.716,-2.013 3.938,-1.109 6.856,-2.246 8.84,-3.413 13.186,-6.886 20.598,-17.097 22.26,-30.604 1.021,-9.249 -2.188,-18.381 -9.598,-27.337 -6.39,-7.732 -14.908,-14.296 -25.5,-19.635 -9.074,-4.755 -15.258,-7.119 -18.555,-7.119 -3.501,0 -5.981,0.262 -7.41,0.788 -2.48,0.905 -3.88,2.509 -4.172,4.785 -0.438,3.705 2.159,8.344 7.701,13.916 4.874,5.047 8.84,7.936 11.934,8.636 1.021,0.117 2.508,0.846 4.464,2.188 1.662,0.817 3.354,1.225 5.106,1.225 -0.41,-0.525 -0.206,-1.196 0.612,-2.013 -10.212,-4.726 -16.892,-11.641 -20.102,-20.714 0.642,-0.496 1.313,-0.758 2.013,-0.758 1.255,0 6.127,1.691 14.705,5.076 6.972,2.888 13.974,8.111 21.006,15.638 8.344,8.84 12.165,17.096 11.466,24.711 -0.73,8.139 -5.164,14.937 -13.304,20.422 -6.798,4.434 -13.363,6.652 -19.636,6.652 -1.954,0 -4.23,-2.188 -6.798,-6.506 -1.866,-3.093 -3.354,-6.476 -4.492,-10.211 -4.23,-14.004 -10.707,-35.039 -19.459,-63.047 -0.234,-1.255 -0.467,-2.48 -0.701,-3.734 -0.438,-2.042 -1.283,-5.63 -2.48,-10.736 -0.991,-4.172 -2.684,-8.84 -5.105,-14.004 l 386.389,0 c 1.283,3.355 0.67,9.686 -1.778,19.022 -2.539,12.399 -4.757,24.71 -6.652,36.964 -0.816,5.748 -1.605,11.466 -2.393,17.155 -0.146,1.138 -0.322,2.217 -0.554,3.239 -0.905,5.805 -1.664,11.64 -2.219,17.475 l 6.391,38.802 -16.457,12.37 -2.071,0.759 -2.654,12.049 c 2.334,7.06 4.434,14.15 6.275,21.355 l 8.897,15.142 3.471,49.772 z"
             style="fill:#235125;fill-opacity:1;fill-rule:nonzero;stroke:none"
             id="path4156"
             inkscape:connector-curvature="0" /></g><g
           id="g4158"
           transform="translate(544.1113,588.9824)"><path
             d="m 0,0 c -1.779,-1.634 -3.473,-4.055 -5.105,-7.265 -1.663,-3.092 -2.481,-5.659 -2.481,-7.731 0.088,0 0.291,-0.204 0.613,-0.613 0.409,-0.291 0.817,-0.466 1.254,-0.466 1.313,0 4.58,2.538 9.717,7.585 4.637,4.756 7.264,7.673 7.904,8.811 1.11,2.159 1.84,4.376 2.161,6.652 -0.321,0 -0.936,0.204 -1.868,0.613 C 11.262,7.994 10.59,8.198 10.182,8.198 8.752,8.198 6.828,7.031 4.463,4.639 2.918,3.209 1.43,1.663 0,0"
             style="fill:#235125;fill-opacity:1;fill-rule:nonzero;stroke:none"
             id="path4160"
             inkscape:connector-curvature="0" /></g><g
           id="g4162"
           transform="translate(652.9336,600.7402)"><path
             d="m 0,0 c -1.547,0.204 -3.211,-0.35 -4.961,-1.693 -1.342,-1.137 -2.684,-2.334 -4.025,-3.559 -1.838,-1.546 -4.463,-5.164 -7.877,-10.824 -3.239,-5.222 -5.049,-9.132 -5.399,-11.67 l -0.086,-0.525 c 0,-0.408 0.028,-0.758 0.086,-1.108 0,-0.496 0.205,-0.905 0.614,-1.225 2.568,0.408 5.455,2.362 8.664,5.863 2.568,2.802 4.64,5.748 6.185,8.84 1.547,2.247 2.977,4.406 4.319,6.477 2.566,4.114 3.705,6.798 3.384,8.023 C 0.816,-0.876 0.496,-0.409 0,0"
             style="fill:#235125;fill-opacity:1;fill-rule:nonzero;stroke:none"
             id="path4164"
             inkscape:connector-curvature="0" /></g><g
           id="g4166"
           transform="translate(424.9033,598.9023)"><path
             d="m 0,0 c -0.292,2.45 -0.816,3.792 -1.546,3.997 -2.772,-3.181 -4.434,-4.785 -4.93,-4.785 -0.438,0 -0.642,0.146 -0.642,0.467 -0.088,0.408 -0.35,0.612 -0.758,0.612 -3.094,0 -5.924,-3.384 -8.49,-10.211 -2.276,-5.864 -3.298,-10.036 -3.093,-12.516 0.205,-2.042 0.759,-3.968 1.691,-5.718 1.138,-2.159 2.568,-3.297 4.32,-3.385 2.158,-0.116 4.638,1.984 7.438,6.331 1.838,3.093 3.064,5.923 3.706,8.49 C -0.262,-10.416 0.526,-4.843 0,0"
             style="fill:#235125;fill-opacity:1;fill-rule:nonzero;stroke:none"
             id="path4168"
             inkscape:connector-curvature="0" /></g><g
           id="g4170"
           transform="translate(421.1113,743.4922)"><path
             d="M 0,0 C -1.08,0.816 -1.838,1.867 -2.218,3.18 L -8.024,21.414 -13.976,3.092 C -14.412,1.838 -15.142,0.787 -16.222,0 c -1.108,-0.759 -2.362,-1.167 -3.704,-1.138 l -18.789,0.146 15.375,-11.204 c 1.08,-0.787 1.838,-1.838 2.246,-3.092 0.408,-1.284 0.408,-2.567 0,-3.88 l -5.864,-18.147 15.376,11.261 c 1.078,0.818 2.304,1.225 3.646,1.225 0.03,0.03 0.088,0.03 0.116,0 1.284,0 2.452,-0.379 3.502,-1.137 l 15.462,-11.262 -5.952,18.06 c -0.408,1.313 -0.408,2.596 0,3.88 0.41,1.254 1.168,2.305 2.247,3.092 L 22.874,-0.992 3.706,-1.138 C 2.362,-1.167 1.138,-0.788 0,0"
             style="fill:#235125;fill-opacity:1;fill-rule:nonzero;stroke:none"
             id="path4172"
             inkscape:connector-curvature="0" /></g><g
           id="g4174"
           transform="translate(712.2168,381.4629)"><path
             d="m 0,0 c -2.129,2.13 -4.668,3.181 -7.674,3.181 l -394.034,0 c -2.976,0 -5.542,-1.051 -7.644,-3.181 -2.128,-2.1 -3.18,-4.639 -3.18,-7.644 l 0,-17.766 c 0,-2.569 0.848,-4.872 2.48,-6.886 1.634,-1.984 3.736,-3.209 6.274,-3.705 8.782,-1.751 17.622,-3.589 26.49,-5.573 l 0.088,0 c 19.197,-4.054 37.489,-9.773 54.877,-17.155 l 0.088,0 c 19.342,-8.023 36.527,-19.285 51.551,-33.697 9.716,-9.277 16.046,-19.809 19.022,-31.653 0.146,-0.584 0.292,-1.138 0.438,-1.722 2.392,-9.22 2.13,-18.322 -0.817,-27.338 -0.175,-0.582 -0.379,-1.136 -0.583,-1.662 -0.292,-1.02 -0.612,-2.012 -0.934,-3.006 -1.05,-3.12 -2.188,-6.214 -3.442,-9.276 l 0.088,0.059 c -7.324,-17.419 -13.45,-35.157 -18.41,-53.245 l 0,-0.087 c -6.711,-24.946 -8.899,-50.066 -6.506,-75.36 1.75,-18.787 8.286,-35.563 19.634,-50.297 l 0,0.059 c 0.788,-1.021 1.634,-2.043 2.48,-3.005 0.438,0.234 0.846,0.496 1.254,0.759 l 0.058,0.088 c 2.744,1.925 4.698,4.433 5.866,7.497 5.396,14.296 12.34,27.774 20.801,40.435 l -0.088,-0.088 c 0.642,0.964 1.284,1.899 1.955,2.861 -2.742,6.097 -4.114,12.981 -4.114,20.626 0,11.174 2.859,20.685 8.578,28.533 l 0.088,0 c 6.243,8.606 13.74,12.779 22.492,12.603 l 0.146,0 c 8.752,0.176 16.25,-3.997 22.494,-12.603 l 0,0.058 c 2.42,-3.238 4.375,-6.768 5.807,-10.59 0.814,0.204 1.633,0.38 2.479,0.554 0.085,0.03 0.205,0.058 0.291,0.088 10.066,2.216 20.277,2.684 30.693,1.371 4.521,-0.555 8.984,-1.546 13.361,-2.918 -0.176,4.493 -0.554,9.015 -1.138,13.508 -2.422,15.405 -6.039,30.517 -10.911,45.308 l 0,-0.086 c -4.697,14.47 -9.57,28.854 -14.587,43.148 -0.35,0.994 -0.702,1.986 -1.051,3.006 -3.092,8.228 -4.231,16.718 -3.414,25.499 0.088,1.167 0.234,2.334 0.351,3.501 0.145,0.584 0.291,1.138 0.438,1.722 1.195,4.376 2.974,8.548 5.367,12.544 9.861,16.426 23.281,29.468 40.262,39.123 33.142,18.702 68.502,30.78 106.109,36.266 2.654,0.408 4.869,1.633 6.652,3.704 1.778,2.013 2.655,4.376 2.623,7.031 l 0,17.767 C 3.148,-4.639 2.1,-2.1 0,0"
             style="fill:#000000;fill-opacity:1;fill-rule:nonzero;stroke:none"
             id="path4176"
             inkscape:connector-curvature="0" /></g><g
           id="g4178"
           transform="translate(432.1094,726.3374)"><path
             d="M 0,0 31.071,22.552 -7.352,22.173 -18.934,58.816 -30.838,22.173 -68.939,22.494 -37.956,0 -49.713,-36.322 -18.934,-13.771 11.991,-36.322 0,0 Z"
             style="fill:#000000;fill-opacity:1;fill-rule:nonzero;stroke:none"
             id="path4180"
             inkscape:connector-curvature="0" /></g><g
           id="g4182"
           transform="translate(451.1904,18.9082)"><path
             d="m 0,0 c -3.151,-0.788 -6.36,-0.992 -9.657,-0.642 7.381,-1.925 14.791,-3.471 22.26,-4.638 13.479,-2.014 26.987,-2.364 40.582,-0.991 8.693,0.845 17.242,2.479 25.673,4.872 5.252,1.545 10.329,3.529 15.2,5.951 l 0.234,0.379 c 0.467,0.233 0.934,0.437 1.4,0.699 8.08,4.173 15.258,9.599 21.502,16.309 6.213,6.623 11.494,13.947 15.813,21.968 4.172,7.733 7.322,15.901 9.453,24.479 2.1,8.285 3.238,16.687 3.471,25.207 0.175,8.956 -0.409,17.914 -1.78,26.811 -0.437,-6.447 -0.906,-12.895 -1.312,-19.313 -0.526,-8.024 -2.772,-15.522 -6.711,-22.494 C 128.542,65.235 119.44,53.039 108.821,41.953 102.052,34.951 94.554,28.678 86.327,23.194 76.263,16.426 65.466,10.97 54.03,6.798 47.292,4.348 40.406,2.334 33.404,0.759 25.762,-0.904 18.058,-2.042 10.269,-2.626 c 1.137,0.118 2.275,0.292 3.413,0.526 7.644,1.371 15.172,3.121 22.64,5.25 -8.518,2.014 -14.034,4.232 -16.542,6.741 8.14,-2.013 14.996,-2.743 20.656,-2.16 5.63,0.583 10.532,1.635 14.674,3.093 4.172,1.458 8.752,3.676 13.77,6.71 -14.617,2.042 -24.534,5.136 -29.756,9.278 14.031,-2.51 27.773,-3.092 41.193,-1.78 2.188,1.488 4.317,3.092 6.389,4.784 5.281,4.406 10.328,9.016 15.17,13.86 -17.154,2.45 -30.457,6.826 -39.969,13.128 17.272,-3.91 34.719,-3.589 52.34,0.991 l 8.578,11.612 c -16.513,2.83 -29.963,7.702 -40.349,14.616 16.863,-2.216 33.58,-1.954 50.152,0.759 l 2.393,4.405 c -0.672,0.263 -1.342,0.526 -2.014,0.758 -4.697,1.722 -9.541,2.918 -14.5,3.56 -9.016,1.168 -17.912,0.788 -26.754,-1.138 C 79.966,89.887 69.319,84.957 59.837,77.489 51.872,71.273 45.074,63.951 39.502,55.549 31.596,43.704 25.12,31.071 20.1,17.68 18.03,12.166 14.558,7.702 9.744,4.318 6.798,2.276 3.559,0.847 0,0"
             style="fill:#235125;fill-opacity:1;fill-rule:nonzero;stroke:none"
             id="path4184"
             inkscape:connector-curvature="0" /></g><g
           id="g4186"
           transform="translate(210.4819,448.3096)"><path
             d="m 0,0 0,4.398 c 4.154,0.315 6.511,0.646 7.069,0.996 0.419,0.209 0.733,0.575 0.943,1.099 0.348,0.872 0.602,4.485 0.759,10.839 0.157,6.353 0.236,12.515 0.236,18.484 0,11.135 -0.114,19.094 -0.341,23.877 -0.228,4.782 -0.594,7.453 -1.1,8.012 -0.505,0.557 -2.015,0.924 -4.529,1.099 L 0,69.066 0,73.464 5.917,73.255 c 3.666,-0.105 6.58,-0.157 8.745,-0.157 2.966,0 7.749,0.072 14.347,0.22 3.56,0.097 6.179,0.146 7.854,0.146 6.248,0 10.866,-0.591 13.85,-1.773 2.984,-1.182 5.254,-2.973 6.808,-5.372 1.552,-2.399 2.33,-5.389 2.33,-8.969 0,-6.468 -2.296,-11.883 -6.886,-16.246 -4.591,-4.364 -10.43,-6.545 -17.516,-6.545 -0.908,0 -1.867,0.069 -2.88,0.207 -1.012,0.138 -2.094,0.329 -3.246,0.571 -0.594,1.246 -1.222,2.456 -1.885,3.633 l 1.205,1.297 c 0.767,-0.159 1.473,-0.287 2.12,-0.382 0.645,-0.094 1.23,-0.142 1.755,-0.142 3.525,0 6.405,1.213 8.639,3.639 2.234,2.426 3.351,5.821 3.351,10.185 0,4.851 -1.155,8.474 -3.465,10.865 -2.311,2.39 -5.705,3.587 -10.185,3.587 -1.82,0 -3.955,-0.262 -6.405,-0.786 C 24.104,56.49 23.93,47.386 23.93,39.923 c 0,-2.512 0.139,-10.517 0.419,-24.015 0.104,-5.336 0.279,-8.406 0.523,-9.207 0.175,-0.593 0.506,-1.012 0.995,-1.256 0.768,-0.383 3.736,-0.732 8.902,-1.047 L 34.769,0 C 28.59,0.245 23.388,0.367 19.165,0.367 17.279,0.367 10.892,0.245 0,0"
             style="fill:#231f20;fill-opacity:1;fill-rule:nonzero;stroke:none"
             id="path4188"
             inkscape:connector-curvature="0" /></g><g
           id="g4190"
           transform="translate(312.2368,503.8809)"><path
             d="m 0,0 -11.053,-26.929 c 3.213,-0.175 6.758,-0.262 10.635,-0.262 4.052,0 7.928,0.087 11.63,0.262 L 0,0 Z m -34.354,-50.806 c 3.281,0.174 5.305,0.505 6.074,0.994 0.523,0.349 1.342,1.676 2.461,3.98 2.129,4.538 4.851,10.839 8.168,18.903 l 18.536,45.398 7.697,0 23.668,-56.237 c 3.071,-7.097 4.966,-10.984 5.682,-11.663 0.714,-0.679 2.922,-1.138 6.624,-1.375 l 0,-4.765 c -5.689,0.244 -11.062,0.366 -16.121,0.366 -6.038,0 -11.778,-0.122 -17.221,-0.366 l 0,4.765 c 4.152,0.17 6.552,0.401 7.197,0.69 0.646,0.29 0.969,0.809 0.969,1.561 0,0.648 -0.734,2.864 -2.198,6.649 l -3.455,8.746 c -4.334,0.105 -9.175,0.157 -14.522,0.157 -4.649,0 -8.879,-0.052 -12.688,-0.157 l -2.302,-5.882 c -0.628,-1.604 -1.395,-3.99 -2.301,-7.161 -0.21,-0.716 -0.314,-1.364 -0.314,-1.943 0,-0.785 0.339,-1.339 1.02,-1.663 0.68,-0.324 3.131,-0.657 7.353,-0.997 l 0,-4.765 c -3.42,0.244 -7.676,0.366 -12.767,0.366 -4.848,0 -8.701,-0.122 -11.56,-0.366 l 0,4.765 z"
             style="fill:#231f20;fill-opacity:1;fill-rule:nonzero;stroke:none"
             id="path4192"
             inkscape:connector-curvature="0" /></g><g
           id="g4194"
           transform="translate(364.4487,448.3096)"><path
             d="m 0,0 0,4.398 c 4.789,0.245 7.496,0.646 8.121,1.205 0.625,0.558 1.008,1.938 1.147,4.137 0.279,4.607 0.419,13.195 0.419,25.761 0,4.818 -0.071,11.799 -0.209,20.946 -0.071,6.248 -0.21,9.678 -0.419,10.289 -0.21,0.61 -0.577,1.055 -1.1,1.335 C 7.19,68.455 4.537,68.786 0,69.066 l 0,4.398 c 7.19,-0.244 12.688,-0.366 16.493,-0.366 6.563,0 12.497,0.122 17.804,0.366 l 0,-4.398 c -4.775,-0.28 -7.469,-0.655 -8.084,-1.126 -0.614,-0.471 -1.009,-1.563 -1.185,-3.273 -0.279,-3.351 -0.419,-10.141 -0.419,-20.369 0,-13.613 0.053,-23.1 0.158,-28.458 0.105,-5.359 0.419,-8.544 0.942,-9.556 0.21,-0.454 0.655,-0.812 1.336,-1.074 0.681,-0.262 3.098,-0.532 7.252,-0.812 l 0,-4.398 -6.179,0.157 c -3.91,0.14 -7.401,0.21 -10.472,0.21 L 0,0 Z"
             style="fill:#231f20;fill-opacity:1;fill-rule:nonzero;stroke:none"
             id="path4196"
             inkscape:connector-curvature="0" /></g><g
           id="g4198"
           transform="translate(408.7046,448.3096)"><path
             d="m 0,0 0,4.398 c 4.258,0.175 6.755,0.454 7.487,0.838 0.489,0.279 0.856,0.733 1.1,1.362 0.384,0.838 0.623,3.787 0.716,8.849 0.185,8.378 0.279,14.696 0.279,18.955 L 9.479,56.551 c 0,5.865 -0.192,9.25 -0.574,10.158 -0.209,0.524 -0.538,0.908 -0.99,1.152 C 7.221,68.28 4.582,68.681 0,69.066 l 0,4.398 c 5.457,-0.175 9.498,-0.261 12.123,-0.261 2.901,0 6.199,0.086 9.896,0.261 C 30.08,63.178 39.193,52.018 49.358,39.983 56.123,31.936 61.959,25.29 66.866,20.042 l 0,20.785 c 0,7.873 -0.088,14.661 -0.262,20.366 -0.139,3.393 -0.418,5.475 -0.837,6.245 -0.21,0.42 -0.594,0.718 -1.153,0.893 -0.558,0.175 -3.002,0.42 -7.33,0.735 l 0,4.398 c 3.797,-0.175 7.577,-0.261 11.339,-0.261 5.155,0 9.823,0.086 14.004,0.261 l 0,-4.398 C 78.739,68.821 76.396,68.542 75.599,68.228 75.146,68.053 74.782,67.809 74.505,67.495 74.228,67.181 74.02,66.779 73.88,66.291 73.638,65.453 73.494,62.764 73.451,58.227 L 73.254,37.282 73.149,16.18 c 0,-5.655 0.122,-11.31 0.368,-16.965 L 72.832,-1.519 C 68.588,-0.75 65.589,-0.244 63.836,0 54.863,9.941 44.022,22.428 31.314,37.462 24.891,45.066 19.706,51.466 15.761,56.664 l 0,-20.351 c 0,-5.546 0.087,-12.226 0.261,-20.038 0.105,-5.755 0.349,-9.068 0.734,-9.941 0.139,-0.383 0.4,-0.68 0.785,-0.889 0.663,-0.383 3.176,-0.732 7.54,-1.047 L 25.081,0 C 19.449,0.245 15.417,0.367 12.983,0.367 10.967,0.367 6.639,0.245 0,0"
             style="fill:#231f20;fill-opacity:1;fill-rule:nonzero;stroke:none"
             id="path4200"
             inkscape:connector-curvature="0" /></g><g
           id="g4202"
           transform="translate(515.0625,448.3096)"><path
             d="m 0,0 0,4.398 c 1.99,0 4.066,0.175 6.23,0.523 1.012,0.175 1.729,0.463 2.147,0.864 0.42,0.401 0.734,1.142 0.943,2.223 0.244,1.5 0.453,7.011 0.629,16.533 0.104,6.766 0.156,13.672 0.156,20.718 0,13.846 -0.044,20.901 -0.13,21.162 -0.088,0.263 -1.323,0.393 -3.702,0.393 -4.863,0 -9.044,-0.14 -12.544,-0.418 -2.03,-0.176 -3.176,-0.35 -3.44,-0.524 -0.262,-0.175 -0.463,-0.48 -0.603,-0.916 -0.139,-0.437 -0.436,-3.5 -0.891,-9.19 l -4.503,0 c 0.069,6.687 -0.106,12.446 -0.525,17.278 l 0.576,0.42 C -4.66,72.94 6.039,72.679 16.441,72.679 c 10.368,0 21.975,0.261 34.821,0.785 l 0.576,-0.84 C 51.174,67.827 50.703,62.208 50.424,55.766 l -4.346,0 c -0.314,5.885 -0.629,9.074 -0.941,9.568 -0.246,0.388 -0.805,0.652 -1.676,0.793 -2.793,0.458 -8.344,0.687 -16.652,0.687 -0.698,0 -1.118,-0.105 -1.256,-0.314 -0.141,-0.245 -0.209,-1.171 -0.209,-2.777 L 25.029,28.506 c 0,-10.203 0.088,-16.465 0.262,-18.789 0.176,-2.323 0.598,-3.729 1.264,-4.218 0.457,-0.314 3.211,-0.682 8.265,-1.101 L 34.82,0 C 29.682,0.245 24.227,0.367 18.459,0.367 10.873,0.367 4.719,0.245 0,0"
             style="fill:#231f20;fill-opacity:1;fill-rule:nonzero;stroke:none"
             id="path4204"
             inkscape:connector-curvature="0" /></g><g
           id="g4206"
           transform="translate(575.0801,448.3096)"><path
             d="m 0,0 0,4.398 c 4.789,0.245 7.496,0.646 8.121,1.205 0.625,0.558 1.008,1.938 1.147,4.137 0.279,4.607 0.42,13.195 0.42,25.761 0,4.818 -0.071,11.799 -0.209,20.946 -0.071,6.248 -0.211,9.678 -0.42,10.289 -0.209,0.61 -0.577,1.055 -1.1,1.335 C 7.191,68.455 4.537,68.786 0,69.066 l 0,4.398 c 7.191,-0.244 12.689,-0.366 16.494,-0.366 6.563,0 12.496,0.122 17.803,0.366 l 0,-4.398 C 29.523,68.786 26.828,68.411 26.213,67.94 25.6,67.469 25.205,66.377 25.029,64.667 24.75,61.316 24.609,54.526 24.609,44.298 c 0,-13.613 0.053,-23.1 0.159,-28.458 0.105,-5.359 0.418,-8.544 0.941,-9.556 C 25.92,5.83 26.365,5.472 27.045,5.21 27.727,4.948 30.143,4.678 34.297,4.398 l 0,-4.398 -6.178,0.157 c -3.91,0.14 -7.402,0.21 -10.473,0.21 L 0,0 Z"
             style="fill:#231f20;fill-opacity:1;fill-rule:nonzero;stroke:none"
             id="path4208"
             inkscape:connector-curvature="0" /></g><g
           id="g4210"
           transform="translate(619.3359,448.3096)"><path
             d="m 0,0 0,4.398 c 4.258,0.175 6.756,0.454 7.488,0.838 0.489,0.279 0.856,0.733 1.1,1.362 0.383,0.838 0.623,3.787 0.715,8.849 0.185,8.378 0.279,14.696 0.279,18.955 L 9.479,56.551 c 0,5.865 -0.192,9.25 -0.573,10.158 -0.209,0.524 -0.539,0.908 -0.99,1.152 C 7.221,68.28 4.582,68.681 0,69.066 l 0,4.398 c 5.457,-0.175 9.498,-0.261 12.123,-0.261 2.902,0 6.199,0.086 9.897,0.261 8.06,-10.286 17.173,-21.446 27.339,-33.481 6.764,-8.047 12.6,-14.693 17.508,-19.941 l 0,20.785 c 0,7.873 -0.088,14.661 -0.262,20.366 -0.14,3.393 -0.419,5.475 -0.837,6.245 -0.211,0.42 -0.594,0.718 -1.153,0.893 -0.558,0.175 -3.002,0.42 -7.33,0.735 l 0,4.398 c 3.797,-0.175 7.576,-0.261 11.338,-0.261 5.156,0 9.824,0.086 14.004,0.261 l 0,-4.398 C 78.74,68.821 76.396,68.542 75.6,68.228 75.146,68.053 74.783,67.809 74.506,67.495 74.229,67.181 74.02,66.779 73.881,66.291 73.639,65.453 73.494,62.764 73.451,58.227 L 73.254,37.282 73.15,16.18 c 0,-5.655 0.121,-11.31 0.368,-16.965 L 72.832,-1.519 C 68.588,-0.75 65.59,-0.244 63.836,0 54.863,9.941 44.023,22.428 31.314,37.462 24.891,45.066 19.707,51.466 15.762,56.664 l 0,-20.351 c 0,-5.546 0.086,-12.226 0.261,-20.038 0.104,-5.755 0.348,-9.068 0.733,-9.941 0.139,-0.383 0.4,-0.68 0.785,-0.889 0.664,-0.383 3.176,-0.732 7.541,-1.047 L 25.082,0 C 19.449,0.245 15.418,0.367 12.984,0.367 10.967,0.367 6.639,0.245 0,0"
             style="fill:#231f20;fill-opacity:1;fill-rule:nonzero;stroke:none"
             id="path4212"
             inkscape:connector-curvature="0" /></g><g
           id="g4214"
           transform="translate(760.043,474.0718)"><path
             d="M 0,0 0,4.242 C 6.354,4.066 12.025,3.979 17.018,3.979 c 4.609,0 9.584,0.087 14.923,0.263 l 0,-3.352 c -1.537,-0.489 -3.002,-1.065 -4.398,-1.728 -0.418,-3.528 -0.629,-6.53 -0.629,-9.009 0,-1.781 0.211,-5.308 0.629,-10.581 -6.912,-2.49 -12.697,-4.176 -17.357,-5.058 -4.661,-0.882 -9.487,-1.323 -14.479,-1.323 -13.475,0 -24.025,3.499 -31.652,10.498 -7.629,6.999 -11.442,16.066 -11.442,27.203 0,11.449 3.893,20.612 11.676,27.49 7.785,6.876 18.955,10.315 33.512,10.315 5.133,0 10.054,-0.402 14.767,-1.204 4.711,-0.804 9.198,-2.025 13.457,-3.666 l 0.471,-0.785 C 25.482,38.608 24.732,33.093 24.244,26.496 l -4.398,0 c -0.035,3.316 -0.262,6.248 -0.68,8.796 -2.234,2.583 -5.105,4.521 -8.615,5.812 -3.508,1.292 -7.653,1.938 -12.436,1.938 -8.97,0 -16.119,-2.726 -21.441,-8.175 -5.324,-5.451 -7.987,-12.909 -7.987,-22.377 0,-10.097 2.803,-18.229 8.405,-24.395 5.603,-6.166 12.506,-9.249 20.709,-9.249 4.363,0 9.008,1.064 13.929,3.194 0.28,2.688 0.418,5.236 0.418,7.645 0,5.375 -0.314,8.342 -0.941,8.901 C 10.578,-0.855 6.842,-0.384 0,0"
             style="fill:#231f20;fill-opacity:1;fill-rule:nonzero;stroke:none"
             id="path4216"
             inkscape:connector-curvature="0" /></g><g
           id="g4218"
           transform="translate(215.1636,420.0122)"><path
             d="m 0,0 c -0.378,0.031 -1.038,-0.353 -1.982,-1.15 -1.054,-0.861 -1.549,-1.901 -1.487,-3.121 0.094,-2.082 1.126,-4.405 3.098,-6.971 1.455,-1.908 3.187,-3.399 5.197,-4.471 2.011,-1.072 4.079,-1.607 6.207,-1.607 1.268,0 2.363,0.177 3.285,0.534 0.923,0.356 1.385,0.771 1.385,1.247 0,0.375 -0.406,0.836 -1.219,1.383 -2.703,1.812 -5.304,3.933 -7.804,6.363 -2.5,2.43 -4.258,4.535 -5.274,6.316 C 0.859,-0.523 0.391,-0.031 0,0 m 6.305,12.914 c 1.172,0 2.554,-0.289 4.148,-0.867 1.235,-0.438 1.985,-0.656 2.25,-0.656 0.235,0 0.445,0.062 0.633,0.187 l 0.516,0.352 c 0.109,0.078 0.234,0.117 0.375,0.117 0.375,0 0.562,-0.367 0.562,-1.102 0,-0.187 -0.008,-0.445 -0.023,-0.773 -0.047,-0.703 -0.071,-1.109 -0.071,-1.219 0,-0.422 0.086,-1.215 0.258,-2.379 0.172,-1.164 0.313,-1.886 0.422,-2.168 0.063,-0.187 0.094,-0.328 0.094,-0.422 0,-0.343 -0.203,-0.515 -0.61,-0.515 -0.406,0 -0.711,0.365 -0.914,1.098 C 13.399,6.545 12.413,8.189 10.986,9.498 9.56,10.807 8.043,11.461 6.438,11.461 5.439,11.461 4.594,11.148 3.9,10.524 3.206,9.9 2.859,9.143 2.859,8.253 c 0,-1.545 0.807,-3.516 2.422,-5.911 1.615,-2.397 3.866,-4.96 6.753,-7.692 4.243,-4.011 6.733,-5.994 7.466,-5.947 0.464,0.031 0.927,0.576 1.391,1.636 0.463,1.06 0.695,2.089 0.695,3.086 0,1.481 -0.285,2.54 -0.856,3.179 -0.57,0.639 -1.566,1.013 -2.988,1.123 -1.172,0.111 -1.758,0.373 -1.758,0.787 0,0.365 0.211,0.548 0.635,0.548 0.25,0 0.525,-0.007 0.821,-0.023 1.645,-0.109 2.968,-0.164 3.971,-0.164 1.191,0 1.974,0.031 2.35,0.094 l 0.939,0.164 c 0.172,0.031 0.337,0.047 0.493,0.047 0.486,0 0.729,-0.215 0.729,-0.645 0,-0.286 -0.18,-0.493 -0.539,-0.621 -0.563,-0.187 -0.91,-0.386 -1.043,-0.596 -0.133,-0.211 -0.199,-0.651 -0.199,-1.321 0,-1.372 -0.422,-3.017 -1.266,-4.935 -0.828,-1.886 -1.234,-2.969 -1.219,-3.25 0.047,-0.911 1.012,-1.916 2.895,-3.015 1.883,-1.099 3.582,-1.649 5.097,-1.649 0.704,0 1.297,0.063 1.782,0.188 l 1.336,0.375 c 0.14,0.031 0.265,0.047 0.375,0.047 0.39,0 0.578,-0.148 0.562,-0.442 -0.047,-0.527 -0.926,-1.101 -2.637,-1.721 -1.711,-0.621 -3.269,-0.931 -4.675,-0.931 -2.282,0 -4.821,0.672 -7.618,2.016 -0.453,0.218 -0.789,0.328 -1.007,0.328 -0.25,0 -0.586,-0.094 -1.008,-0.281 l -2.11,-0.938 c -2.406,-1.047 -5.148,-1.57 -8.226,-1.57 -4.031,0 -7.301,1.043 -9.809,3.129 -2.508,2.086 -3.761,4.808 -3.761,8.168 0,1.968 0.507,3.765 1.523,5.39 1.016,1.625 2.375,2.828 4.078,3.61 0.719,0.328 1.078,0.664 1.078,1.007 0,0.172 -0.07,0.415 -0.211,0.727 -0.422,1 -0.633,2.164 -0.633,3.492 0,2.047 0.727,3.754 2.18,5.121 1.453,1.367 3.266,2.051 5.438,2.051"
             style="fill:#235125;fill-opacity:1;fill-rule:nonzero;stroke:none"
             id="path4220"
             inkscape:connector-curvature="0" /></g><g
           id="g4222"
           transform="translate(303.9438,428.0981)"><path
             d="m 0,0 0,-8.109 c 0,-1 0.129,-1.633 0.388,-1.899 0.258,-0.265 0.873,-0.398 1.843,-0.398 2.788,0 4.513,0.051 5.179,0.152 0.666,0.102 1.288,0.418 1.867,0.949 1.144,1.032 1.715,2.453 1.715,4.266 0,2.359 -0.771,4.309 -2.313,5.848 C 7.136,2.348 5.175,3.117 2.795,3.117 1.73,3.117 0.998,2.895 0.599,2.449 0.199,2.004 0,1.188 0,0 m 0,-18.294 c 0,-2.965 0.273,-4.973 0.82,-6.026 0.547,-1.053 1.625,-1.657 3.235,-1.813 0.656,-0.063 0.984,-0.318 0.984,-0.763 0,-0.444 -0.266,-0.667 -0.797,-0.667 -0.172,0 -0.492,0.024 -0.961,0.071 -1.343,0.109 -2.64,0.164 -3.89,0.164 -1.047,0 -1.977,-0.03 -2.789,-0.089 l -1.969,-0.179 -1.571,-0.134 c -0.437,-0.044 -0.742,-0.067 -0.914,-0.067 -0.562,0 -0.843,0.215 -0.843,0.644 0,0.35 0.156,0.573 0.468,0.669 1.063,0.327 1.797,0.767 2.204,1.32 0.406,0.554 0.609,1.399 0.609,2.538 l 0,2.221 0.023,0.912 0,16.929 c 0,1.87 -0.234,3.125 -0.703,3.764 -0.765,1.044 -2.015,1.675 -3.75,1.894 -0.64,0.095 -0.961,0.365 -0.961,0.809 0,0.445 0.219,0.667 0.657,0.667 0.171,0 0.453,-0.023 0.843,-0.07 1.203,-0.125 2.524,-0.187 3.961,-0.187 1.578,0 3.492,0.085 5.742,0.257 2.641,0.203 4.461,0.305 5.461,0.305 2.969,0 5.43,-0.81 7.383,-2.428 1.953,-1.619 2.93,-3.655 2.93,-6.11 0,-1.548 -0.434,-2.956 -1.301,-4.222 -0.867,-1.267 -2.058,-2.229 -3.574,-2.886 -0.313,-0.125 -0.461,-0.281 -0.445,-0.468 0.015,-0.157 0.093,-0.344 0.234,-0.563 0.141,-0.218 0.352,-0.585 0.633,-1.1 l 2.086,-3.7 2.414,-4.285 c 0.828,-1.452 1.566,-2.459 2.215,-3.021 0.648,-0.562 1.41,-0.843 2.285,-0.843 0.359,0 0.695,0.031 1.008,0.094 0.187,0.047 0.359,0.07 0.515,0.07 0.281,0 0.422,-0.18 0.422,-0.539 0,-0.452 -0.64,-0.968 -1.919,-1.546 -1.278,-0.578 -2.413,-0.867 -3.401,-0.867 -1.607,0 -3.087,0.789 -4.444,2.367 -1.356,1.578 -3.118,4.563 -5.286,8.953 -0.842,1.735 -1.536,2.832 -2.083,3.293 -0.547,0.461 -1.437,0.692 -2.672,0.692 l -1.453,0 -1.054,-0.187 C 0.117,-12.546 0,-12.921 0,-13.545 l 0,-4.749 z"
             style="fill:#235125;fill-opacity:1;fill-rule:nonzero;stroke:none"
             id="path4224"
             inkscape:connector-curvature="0" /></g><g
           id="g4226"
           transform="translate(353.0688,427.3247)"><path
             d="m 0,0 0,-5.086 c 0,-1.453 0.105,-2.375 0.316,-2.766 0.211,-0.39 0.723,-0.586 1.536,-0.586 l 0.703,0.024 1.031,0.023 1.992,0 c 1.547,0 2.742,0.852 3.586,2.555 l 0.539,1.148 c 0.141,0.282 0.375,0.43 0.703,0.446 0.344,0.015 0.516,-0.196 0.516,-0.634 0,-0.126 -0.024,-0.47 -0.07,-1.034 -0.032,-0.407 -0.047,-0.751 -0.047,-1.033 0,-0.501 0.07,-1.676 0.211,-3.523 0.093,-1.206 0.14,-2.255 0.14,-3.147 l 0.024,-1.199 c 0,-0.218 -0.024,-0.367 -0.071,-0.445 -0.062,-0.095 -0.187,-0.149 -0.375,-0.165 -0.39,-0.031 -0.632,0.266 -0.726,0.891 -0.203,1.328 -0.672,2.336 -1.406,3.023 -0.407,0.375 -0.903,0.617 -1.489,0.727 -0.586,0.109 -1.683,0.164 -3.293,0.164 l -1.593,0 c -0.75,0 -1.262,-0.113 -1.536,-0.34 -0.273,-0.226 -0.457,-0.682 -0.55,-1.368 C 0.047,-13.105 0,-14.337 0,-16.022 l 0,-2.106 c 0,-2.2 0.172,-3.783 0.516,-4.75 0.265,-0.702 0.578,-1.178 0.937,-1.428 0.36,-0.249 0.914,-0.374 1.664,-0.374 6.344,0 10.492,1.93 12.446,5.789 0.109,0.188 0.203,0.289 0.281,0.305 0.156,0.031 0.301,-0.019 0.433,-0.153 0.133,-0.133 0.2,-0.302 0.2,-0.505 0,-1.535 -0.414,-3.024 -1.243,-4.465 -0.687,-1.223 -1.546,-2.096 -2.578,-2.621 -1.031,-0.524 -2.398,-0.787 -4.101,-0.787 -1,0 -2.11,0.062 -3.328,0.187 l -2.719,0.258 c -1,0.094 -2.352,0.141 -4.055,0.141 -1.141,0 -2.875,-0.071 -5.203,-0.211 -0.641,-0.047 -1.102,-0.071 -1.383,-0.071 -0.375,0 -0.578,0.176 -0.609,0.527 -0.016,0.286 0.156,0.502 0.515,0.645 0.891,0.344 1.497,0.706 1.817,1.088 0.32,0.383 0.574,1.065 0.762,2.048 0.171,0.827 0.257,1.95 0.257,3.37 l 0,18.557 c 0,1.747 -0.285,2.932 -0.855,3.557 -0.57,0.624 -1.754,1.06 -3.551,1.31 -0.422,0.064 -0.633,0.294 -0.633,0.693 0,0.366 0.258,0.549 0.774,0.549 0.109,0 0.343,-0.015 0.703,-0.047 0.281,-0.015 0.664,-0.023 1.148,-0.023 L -5.438,5.367 3.445,5.273 c 5.11,0 8.258,0.071 9.446,0.211 0.125,0.016 0.234,0.024 0.328,0.024 0.453,0 0.679,-0.258 0.679,-0.774 0,-0.359 0.047,-1 0.141,-1.921 0.125,-1.36 0.188,-2.336 0.188,-2.93 0,-1.188 -0.305,-1.797 -0.914,-1.828 -0.297,-0.016 -0.446,0.329 -0.446,1.035 0,1.554 -0.566,2.68 -1.699,3.378 -1.133,0.698 -2.965,1.048 -5.496,1.048 l -2.859,0 L 1.219,3.328 C 0.422,3.078 0.023,2.289 0.023,0.961 L 0,0 Z"
             style="fill:#235125;fill-opacity:1;fill-rule:nonzero;stroke:none"
             id="path4228"
             inkscape:connector-curvature="0" /></g><g
           id="g4230"
           transform="translate(396.8706,433.3013)"><path
             d="M 0,0 C 1.469,0 2.905,-0.281 4.312,-0.844 L 5.882,-1.5 c 0.702,-0.281 1.202,-0.422 1.499,-0.422 0.219,0 0.446,0.055 0.681,0.164 l 0.891,0.445 c 0.126,0.063 0.251,0.094 0.376,0.094 0.329,0 0.493,-0.258 0.493,-0.773 L 9.775,-3.891 c 0,-0.297 0.016,-0.578 0.047,-0.843 l 0.305,-2.297 0.234,-2.133 c 0.032,-0.188 0.047,-0.344 0.047,-0.469 0,-0.672 -0.195,-1.008 -0.586,-1.008 -0.281,0 -0.484,0.296 -0.609,0.889 -0.454,2.181 -1.597,4.067 -3.428,5.657 -1.831,1.589 -3.771,2.384 -5.821,2.384 -1.409,0 -2.638,-0.475 -3.686,-1.424 -1.049,-0.95 -1.573,-2.07 -1.573,-3.362 0,-1.198 0.461,-2.233 1.385,-3.105 0.595,-0.562 2.449,-1.476 5.562,-2.74 3.708,-1.517 6.165,-3.002 7.37,-4.455 1.424,-1.751 2.136,-3.862 2.136,-6.331 0,-2.721 -0.984,-5.089 -2.953,-7.105 -1.969,-2.017 -4.273,-3.025 -6.914,-3.025 -1.078,0 -2.789,0.367 -5.133,1.102 -1.094,0.359 -1.898,0.593 -2.414,0.703 -0.719,0.14 -1.137,0.277 -1.254,0.41 -0.117,0.133 -0.215,0.535 -0.293,1.207 -0.078,0.734 -0.312,1.797 -0.703,3.188 -0.594,2.125 -0.89,3.484 -0.89,4.078 0,0.75 0.242,1.125 0.726,1.125 0.219,0 0.375,-0.187 0.469,-0.561 0.766,-2.682 2.097,-4.934 3.99,-6.759 1.894,-1.823 3.857,-2.735 5.892,-2.735 1.58,0 2.992,0.604 4.236,1.811 1.244,1.208 1.866,2.59 1.866,4.148 0,1.231 -0.325,2.243 -0.974,3.038 -0.65,0.795 -1.772,1.542 -3.368,2.243 l -3.568,1.593 c -3.363,1.5 -5.648,2.919 -6.852,4.256 -1.206,1.337 -1.808,3.115 -1.808,5.335 0,2.58 0.84,4.738 2.518,6.473 C -4.589,-0.868 -2.5,0 0,0"
             style="fill:#235125;fill-opacity:1;fill-rule:nonzero;stroke:none"
             id="path4232"
             inkscape:connector-curvature="0" /></g><g
           id="g4234"
           transform="translate(444.4741,427.0669)"><path
             d="m 0,0 0,-17.648 c 0,-2.641 0.383,-4.512 1.148,-5.614 0.766,-1.101 2.118,-1.715 4.055,-1.84 0.563,-0.047 0.844,-0.326 0.844,-0.834 0,-0.366 -0.242,-0.548 -0.727,-0.548 -0.109,0 -0.304,0.007 -0.586,0.023 l -1.757,0.07 -2.93,0.188 c -0.235,0.015 -0.547,0.023 -0.938,0.023 -0.906,0 -1.718,-0.023 -2.437,-0.07 l -5.18,-0.305 c -0.547,-0.062 -0.922,-0.093 -1.125,-0.093 -0.484,0 -0.719,0.206 -0.703,0.619 0.016,0.349 0.094,0.575 0.234,0.678 0.141,0.103 0.446,0.171 0.914,0.203 1.219,0.078 2.161,0.519 2.825,1.324 0.664,0.804 0.996,1.902 0.996,3.293 l -0.024,1.101 0,20.813 c 0,1.234 -0.664,1.851 -1.992,1.851 -3.125,0 -5.258,-0.227 -6.398,-0.682 -0.828,-0.345 -1.379,-0.733 -1.653,-1.164 -0.273,-0.431 -0.644,-1.501 -1.113,-3.21 l -0.187,-0.659 c -0.172,-0.643 -0.438,-0.964 -0.797,-0.964 -0.516,0 -0.758,0.242 -0.727,0.726 0.016,0.438 0.094,1.047 0.235,1.828 l 0.234,2.039 0.281,2.086 0.164,1.43 c 0.063,0.609 0.391,0.914 0.985,0.914 0.156,0 0.421,-0.015 0.796,-0.047 0.61,-0.047 1.477,-0.07 2.602,-0.07 l 4.781,-0.047 5.696,-0.07 c 3.672,0 7.562,0.101 11.672,0.304 0.812,0.032 1.335,0.047 1.57,0.047 0.859,0 1.312,-0.359 1.359,-1.078 L 12.234,2.93 c 0.016,-0.266 0.094,-0.899 0.235,-1.899 0.109,-0.828 0.164,-1.492 0.164,-1.992 0,-0.516 -0.211,-0.773 -0.633,-0.773 -0.359,0 -0.609,0.297 -0.75,0.894 C 10.922,0.62 10.293,1.672 9.363,2.315 8.434,2.959 7.086,3.281 5.32,3.281 2.945,3.281 1.465,3.098 0.879,2.73 0.293,2.363 0,1.453 0,0"
             style="fill:#235125;fill-opacity:1;fill-rule:nonzero;stroke:none"
             id="path4236"
             inkscape:connector-curvature="0" /></g><g
           id="g4238"
           transform="translate(490.3179,431.5903)"><path
             d="m 0,0 c -3.141,0 -5.594,-1.164 -7.359,-3.492 -1.766,-2.328 -2.649,-5.571 -2.649,-9.727 0,-4.906 1.11,-8.894 3.328,-11.965 2.219,-3.07 5.102,-4.605 8.649,-4.605 3.203,0 5.765,1.269 7.687,3.809 1.923,2.539 2.884,5.933 2.884,10.183 0,2.453 -0.446,4.848 -1.336,7.184 -0.891,2.336 -2.079,4.191 -3.563,5.566 C 5.484,-1.016 2.938,0 0,0 m 1.688,1.758 c 4.875,0 8.812,-1.419 11.812,-4.257 3,-2.838 4.5,-6.564 4.5,-11.176 0,-5.019 -1.546,-9.272 -4.64,-12.759 -3.016,-3.409 -7.172,-5.113 -12.469,-5.113 -5.063,0 -9.11,1.482 -12.141,4.444 -3.031,2.963 -4.547,6.923 -4.547,11.88 0,2.126 0.383,4.242 1.149,6.345 0.765,2.103 1.804,3.865 3.117,5.288 1.515,1.673 3.441,2.983 5.777,3.929 2.336,0.946 4.816,1.419 7.442,1.419"
             style="fill:#235125;fill-opacity:1;fill-rule:nonzero;stroke:none"
             id="path4240"
             inkscape:connector-curvature="0" /></g><g
           id="g4242"
           transform="translate(537.1211,428.0981)"><path
             d="m 0,0 0,-8.109 c 0,-1 0.129,-1.633 0.389,-1.899 0.257,-0.265 0.873,-0.398 1.843,-0.398 2.788,0 4.512,0.051 5.178,0.152 0.666,0.102 1.289,0.418 1.867,0.949 1.145,1.032 1.715,2.453 1.715,4.266 0,2.359 -0.771,4.309 -2.312,5.848 C 7.137,2.348 5.176,3.117 2.795,3.117 1.73,3.117 0.998,2.895 0.6,2.449 0.199,2.004 0,1.188 0,0 m 0,-18.294 c 0,-2.965 0.273,-4.973 0.82,-6.026 0.547,-1.053 1.625,-1.657 3.235,-1.813 0.656,-0.063 0.984,-0.318 0.984,-0.763 0,-0.444 -0.266,-0.667 -0.797,-0.667 -0.172,0 -0.492,0.024 -0.961,0.071 -1.343,0.109 -2.64,0.164 -3.89,0.164 -1.047,0 -1.977,-0.03 -2.789,-0.089 l -1.969,-0.179 -1.571,-0.134 c -0.437,-0.044 -0.742,-0.067 -0.914,-0.067 -0.562,0 -0.843,0.215 -0.843,0.644 0,0.35 0.156,0.573 0.468,0.669 1.063,0.327 1.797,0.767 2.204,1.32 0.406,0.554 0.609,1.399 0.609,2.538 l 0,2.221 0.023,0.912 0,16.929 c 0,1.87 -0.234,3.125 -0.703,3.764 -0.765,1.044 -2.015,1.675 -3.75,1.894 -0.64,0.095 -0.961,0.365 -0.961,0.809 0,0.445 0.219,0.667 0.657,0.667 0.171,0 0.453,-0.023 0.843,-0.07 1.203,-0.125 2.524,-0.187 3.961,-0.187 1.578,0 3.492,0.085 5.742,0.257 2.641,0.203 4.461,0.305 5.461,0.305 2.969,0 5.43,-0.81 7.383,-2.428 1.953,-1.619 2.93,-3.655 2.93,-6.11 0,-1.548 -0.434,-2.956 -1.301,-4.222 -0.867,-1.267 -2.058,-2.229 -3.574,-2.886 -0.313,-0.125 -0.461,-0.281 -0.445,-0.468 0.015,-0.157 0.093,-0.344 0.234,-0.563 0.141,-0.218 0.352,-0.585 0.633,-1.1 l 2.086,-3.7 2.414,-4.285 c 0.828,-1.452 1.566,-2.459 2.215,-3.021 0.648,-0.562 1.41,-0.843 2.285,-0.843 0.359,0 0.695,0.031 1.008,0.094 0.187,0.047 0.359,0.07 0.515,0.07 0.281,0 0.422,-0.18 0.422,-0.539 0,-0.452 -0.639,-0.968 -1.918,-1.546 -1.279,-0.578 -2.414,-0.867 -3.402,-0.867 -1.606,0 -3.086,0.789 -4.444,2.367 -1.355,1.578 -3.117,4.563 -5.285,8.953 -0.842,1.735 -1.537,2.832 -2.084,3.293 -0.547,0.461 -1.437,0.692 -2.672,0.692 l -1.453,0 -1.054,-0.187 C 0.117,-12.546 0,-12.921 0,-13.545 l 0,-4.749 z"
             style="fill:#235125;fill-opacity:1;fill-rule:nonzero;stroke:none"
             id="path4244"
             inkscape:connector-curvature="0" /></g><g
           id="g4246"
           transform="translate(593.9688,415.439)"><path
             d="m 0,0 -3.061,7.152 c -0.732,1.714 -1.253,2.572 -1.566,2.572 -0.186,0 -0.529,-0.554 -1.027,-1.66 L -6.1,7.082 -8.834,0.841 -9.092,0.257 c -0.109,-0.234 -0.164,-0.437 -0.164,-0.608 0,-0.53 0.561,-0.795 1.684,-0.795 l 6.918,0 c 0.591,0 0.888,0.164 0.888,0.491 0,0.078 -0.039,0.211 -0.117,0.398 L 0,0 Z M -0.879,14.652 9.785,-9.821 c 0.531,-1.233 1.156,-2.155 1.875,-2.763 0.719,-0.609 1.649,-1.015 2.789,-1.218 0.281,-0.048 0.422,-0.27 0.422,-0.668 0,-0.429 -0.18,-0.636 -0.539,-0.621 -0.203,0.016 -0.502,0.063 -0.893,0.141 -1.205,0.265 -3.146,0.398 -5.822,0.398 -2.691,0 -4.523,-0.123 -5.494,-0.37 -0.234,-0.065 -0.437,-0.099 -0.609,-0.099 -0.44,0 -0.659,0.224 -0.659,0.67 0,0.223 0.172,0.391 0.516,0.502 0.75,0.219 1.371,0.61 1.863,1.172 0.493,0.563 0.739,1.156 0.739,1.781 0,0.875 -0.678,2.797 -2.034,5.766 -0.419,0.906 -0.882,1.426 -1.39,1.559 -0.506,0.133 -2.303,0.199 -5.387,0.199 l -3.18,0 -2.103,-0.374 c -0.576,-0.266 -1.231,-1.294 -1.963,-3.087 l -0.725,-1.8 c -0.218,-0.515 -0.328,-1.037 -0.328,-1.567 0,-1.965 1.375,-3.103 4.125,-3.414 0.594,-0.08 0.883,-0.311 0.867,-0.693 -0.031,-0.413 -0.312,-0.62 -0.845,-0.62 -0.281,0 -0.68,0.047 -1.198,0.141 -1.033,0.203 -1.957,0.305 -2.771,0.305 -0.736,0 -1.926,-0.079 -3.57,-0.235 -1.221,-0.125 -1.981,-0.187 -2.278,-0.187 -0.437,0 -0.658,0.191 -0.658,0.572 0,0.319 0.219,0.558 0.656,0.717 0.844,0.265 1.52,0.752 2.028,1.462 0.508,0.71 1.261,2.204 2.261,4.481 l 6.399,14.743 c 0.516,1.17 0.875,1.973 1.078,2.41 l 2.18,4.47 1.125,2.199 0,-0.07 c 0.5,1.188 0.836,1.781 1.008,1.781 0.25,0 0.679,-0.656 1.289,-1.968 l 0.562,-1.242 z"
             style="fill:#235125;fill-opacity:1;fill-rule:nonzero;stroke:none"
             id="path4248"
             inkscape:connector-curvature="0" /></g><g
           id="g4250"
           transform="translate(640.4805,427.0669)"><path
             d="m 0,0 0,-17.648 c 0,-2.641 0.383,-4.512 1.148,-5.614 0.766,-1.101 2.118,-1.715 4.055,-1.84 0.563,-0.047 0.844,-0.326 0.844,-0.834 0,-0.366 -0.242,-0.548 -0.727,-0.548 -0.109,0 -0.304,0.007 -0.586,0.023 l -1.757,0.07 -2.93,0.188 c -0.235,0.015 -0.547,0.023 -0.938,0.023 -0.906,0 -1.718,-0.023 -2.437,-0.07 l -5.18,-0.305 c -0.547,-0.062 -0.922,-0.093 -1.125,-0.093 -0.484,0 -0.719,0.206 -0.703,0.619 0.016,0.349 0.094,0.575 0.234,0.678 0.141,0.103 0.446,0.171 0.914,0.203 1.219,0.078 2.161,0.519 2.825,1.324 0.664,0.804 0.996,1.902 0.996,3.293 l -0.024,1.101 0,20.813 c 0,1.234 -0.664,1.851 -1.992,1.851 -3.125,0 -5.258,-0.227 -6.398,-0.682 -0.828,-0.345 -1.379,-0.733 -1.653,-1.164 -0.273,-0.431 -0.644,-1.501 -1.113,-3.21 l -0.187,-0.659 c -0.172,-0.643 -0.438,-0.964 -0.797,-0.964 -0.516,0 -0.758,0.242 -0.727,0.726 0.016,0.438 0.094,1.047 0.235,1.828 l 0.234,2.039 0.281,2.086 0.164,1.43 c 0.063,0.609 0.391,0.914 0.985,0.914 0.156,0 0.421,-0.015 0.796,-0.047 0.61,-0.047 1.477,-0.07 2.602,-0.07 l 4.781,-0.047 5.696,-0.07 c 3.672,0 7.562,0.101 11.672,0.304 0.812,0.032 1.335,0.047 1.57,0.047 0.859,0 1.312,-0.359 1.359,-1.078 L 12.234,2.93 c 0.016,-0.266 0.094,-0.899 0.235,-1.899 0.109,-0.828 0.164,-1.492 0.164,-1.992 0,-0.516 -0.211,-0.773 -0.633,-0.773 -0.359,0 -0.609,0.297 -0.75,0.894 C 10.922,0.62 10.293,1.672 9.363,2.315 8.434,2.959 7.086,3.281 5.32,3.281 2.945,3.281 1.465,3.098 0.879,2.73 0.293,2.363 0,1.453 0,0"
             style="fill:#235125;fill-opacity:1;fill-rule:nonzero;stroke:none"
             id="path4252"
             inkscape:connector-curvature="0" /></g><g
           id="g4254"
           transform="translate(680.1836,407.9604)"><path
             d="m 0,0 0.188,-2.342 c 0.187,-1.202 0.644,-2.123 1.371,-2.763 0.726,-0.64 1.675,-0.96 2.847,-0.96 0.766,0 1.149,-0.239 1.149,-0.716 0,-0.46 -0.508,-0.691 -1.524,-0.691 -0.437,0 -1.062,0.042 -1.875,0.124 -2.031,0.23 -3.679,0.345 -4.945,0.345 -1.563,0 -2.797,-0.082 -3.703,-0.245 -0.781,-0.149 -1.344,-0.224 -1.688,-0.224 -0.343,0 -0.562,0.168 -0.656,0.502 l -0.047,0.191 0.68,0.55 c 1.125,0.405 1.871,0.9 2.238,1.485 0.367,0.585 0.551,1.556 0.551,2.914 l 0.023,2.082 0,18.65 c 0,1.435 -0.25,2.457 -0.75,3.066 -0.5,0.608 -1.414,1.013 -2.742,1.217 -0.797,0.127 -1.308,0.25 -1.535,0.368 -0.227,0.119 -0.34,0.321 -0.34,0.607 0,0.444 0.188,0.657 0.563,0.642 0.281,-0.016 0.703,-0.078 1.265,-0.188 0.563,-0.125 1.508,-0.187 2.836,-0.187 0.875,0 1.961,0.052 3.258,0.156 l 1.711,0.134 c 1.609,0.119 2.844,0.179 3.703,0.179 0.516,0 0.774,-0.191 0.774,-0.573 0,-0.286 -0.039,-0.477 -0.118,-0.572 C 3.156,23.655 2.961,23.584 2.648,23.536 1.523,23.349 0.801,23.037 0.48,22.6 0.16,22.162 0,21.272 0,19.93 L 0,0 Z"
             style="fill:#235125;fill-opacity:1;fill-rule:nonzero;stroke:none"
             id="path4256"
             inkscape:connector-curvature="0" /></g><g
           id="g4258"
           transform="translate(719.418,431.5903)"><path
             d="m 0,0 c -3.141,0 -5.594,-1.164 -7.359,-3.492 -1.766,-2.328 -2.649,-5.571 -2.649,-9.727 0,-4.906 1.11,-8.894 3.328,-11.965 2.219,-3.07 5.102,-4.605 8.649,-4.605 3.203,0 5.765,1.269 7.687,3.809 1.922,2.539 2.883,5.933 2.883,10.183 0,2.453 -0.445,4.848 -1.336,7.184 -0.89,2.336 -2.078,4.191 -3.562,5.566 C 5.484,-1.016 2.938,0 0,0 m 1.688,1.758 c 4.875,0 8.812,-1.419 11.812,-4.257 3,-2.838 4.5,-6.564 4.5,-11.176 0,-5.019 -1.547,-9.272 -4.641,-12.759 -3.015,-3.409 -7.171,-5.113 -12.468,-5.113 -5.063,0 -9.11,1.482 -12.141,4.444 -3.031,2.963 -4.547,6.923 -4.547,11.88 0,2.126 0.383,4.242 1.149,6.345 0.765,2.103 1.804,3.865 3.117,5.288 1.515,1.673 3.441,2.983 5.777,3.929 2.336,0.946 4.816,1.419 7.442,1.419"
             style="fill:#235125;fill-opacity:1;fill-rule:nonzero;stroke:none"
             id="path4260"
             inkscape:connector-curvature="0" /></g><g
           id="g4262"
           transform="translate(769.0215,427.395)"><path
             d="m 0,0 12.395,-13.922 0.794,-0.891 c 1.061,-1.187 1.77,-1.781 2.129,-1.781 0.328,0 0.506,0.476 0.537,1.428 0.141,3.449 0.211,6.735 0.211,9.856 0,3.668 -0.371,6.15 -1.113,7.445 -0.742,1.296 -2.199,2.021 -4.371,2.178 -0.516,0.031 -0.773,0.215 -0.773,0.549 0,0.415 0.226,0.622 0.681,0.622 0.563,0 1.471,-0.078 2.725,-0.234 0.812,-0.094 1.486,-0.141 2.019,-0.141 1.08,0 2.793,0.149 5.143,0.446 0.312,0.031 0.539,0.047 0.68,0.047 0.502,0 0.752,-0.223 0.752,-0.668 0,-0.397 -0.25,-0.636 -0.75,-0.715 -2.016,-0.375 -3.024,-2.163 -3.024,-5.364 l 0,-1.147 -0.332,-14.637 -0.094,-2.014 -0.025,-2.6 0.025,-1.78 0.094,-2.927 c 0,-0.438 -0.158,-0.648 -0.474,-0.633 -0.28,0.016 -0.569,0.188 -0.866,0.516 L -4.959,-2.672 c -0.375,0.406 -0.631,0.609 -0.771,0.609 -0.375,0 -0.563,-0.351 -0.563,-1.053 l -0.023,-0.679 0,-9.085 c 0,-4.854 0.242,-8.101 0.726,-9.74 0.516,-1.748 2.039,-2.74 4.57,-2.974 0.469,-0.048 0.704,-0.247 0.704,-0.597 0,-0.477 -0.243,-0.715 -0.729,-0.715 -0.187,0 -0.492,0.031 -0.914,0.093 -1.316,0.219 -2.771,0.329 -4.369,0.329 -1.58,0 -2.99,-0.112 -4.227,-0.335 -0.549,-0.089 -0.947,-0.134 -1.197,-0.134 -0.424,0 -0.635,0.191 -0.635,0.573 0,0.318 0.227,0.542 0.68,0.669 1.141,0.327 1.973,1.002 2.496,2.023 0.523,1.021 0.785,2.49 0.785,4.407 l 0.164,5.565 0,10.148 c 0,4.801 -1.773,7.326 -5.32,7.576 -0.484,0.031 -0.727,0.23 -0.727,0.596 0,0.446 0.268,0.669 0.799,0.669 l 1.623,-0.07 0.987,0.024 c 1.222,0 2.529,0.07 3.923,0.211 0.518,0.046 0.95,0.07 1.293,0.07 0.485,0 0.866,-0.106 1.147,-0.317 C -4.256,4.98 -3.664,4.336 -2.76,3.258 L -1.146,1.359 C -0.506,0.609 -0.125,0.156 0,0"
             style="fill:#235125;fill-opacity:1;fill-rule:nonzero;stroke:none"
             id="path4264"
             inkscape:connector-curvature="0" /></g></g></g></g></svg>