<svg xmlns:dc="http://purl.org/dc/elements/1.1/" xmlns:cc="http://creativecommons.org/ns#" xmlns:rdf="http://www.w3.org/1999/02/22-rdf-syntax-ns#" xmlns:svg="http://www.w3.org/2000/svg" xmlns="http://www.w3.org/2000/svg" xmlns:sodipodi="http://sodipodi.sourceforge.net/DTD/sodipodi-0.dtd" xmlns:inkscape="http://www.inkscape.org/namespaces/inkscape" id="svg2" version="1.1" inkscape:version="0.92.2 (5c3e80d, 2017-08-06)" xml:space="preserve" width="825.55701" height="244.96913" viewBox="0 0 825.55701 244.96913" sodipodi:docname="ppr-logo-horz.svg"><metadata id="metadata8"><rdf:rdf><cc:work rdf:about=""><dc:format>image/svg+xml</dc:format><dc:type rdf:resource="http://purl.org/dc/dcmitype/StillImage"></dc:type><dc:title></dc:title></cc:work></rdf:rdf></metadata><defs id="defs6"><clipPath clipPathUnits="userSpaceOnUse" id="clipPath16"><path d="M 0,800 1000,800 1000,0 0,0 0,800 Z" id="path18" inkscape:connector-curvature="0"></path></clipPath></defs><sodipodi:namedview pagecolor="#ffffff" bordercolor="#666666" borderopacity="1" objecttolerance="10" gridtolerance="10" guidetolerance="10" inkscape:pageopacity="0" inkscape:pageshadow="2" inkscape:window-width="1920" inkscape:window-height="1057" id="namedview4" showgrid="false" fit-margin-top="0" fit-margin-left="0" fit-margin-right="0" fit-margin-bottom="0" inkscape:zoom="2" inkscape:cx="346.5596" inkscape:cy="137.50743" inkscape:window-x="3602" inkscape:window-y="-8" inkscape:window-maximized="1" inkscape:current-layer="g10"></sodipodi:namedview><g id="g10" inkscape:groupmode="layer" inkscape:label="Portland Painting &amp; Restoration T Brush" transform="matrix(1.25,0,0,-1.25,-212.22188,646.61638)"><g id="g12"><g id="g14" clip-path="url(#clipPath16)"><g id="g20" transform="translate(489.2646,515.1821)"><path d="M 0,0 -3.219,2.111 -9.781,2.094 -25.57,0.047 c -0.367,-0.041 -0.714,-0.106 -1.049,-0.188 -2.831,-0.63 -5.626,-1.344 -8.385,-2.14 -0.809,-0.254 -1.586,-0.501 -2.348,-0.732 -0.759,-0.229 -1.549,-0.466 -2.357,-0.719 -1.269,-0.465 -2.541,-0.926 -3.809,-1.391 -0.62,-0.242 -1.214,-0.473 -1.787,-0.69 l 0.117,0.065 c -0.041,-0.018 -0.087,-0.042 -0.123,-0.065 -1.203,-0.625 -1.851,-0.973 -1.945,-1.044 l -5.543,-4.027 2.122,-6.468 c 0.089,-0.265 0.089,-0.525 0,-0.785 -0.082,-0.259 -0.235,-0.465 -0.454,-0.624 -0.218,-0.153 -0.465,-0.236 -0.73,-0.229 -0.272,-0.007 -0.52,0.076 -0.738,0.229 l -5.524,4.032 -5.472,-4.021 c -0.212,-0.158 -0.454,-0.24 -0.719,-0.24 -0.272,-0.007 -0.525,0.076 -0.749,0.229 -0.218,0.159 -0.372,0.365 -0.454,0.624 -0.083,0.266 -0.083,0.526 0,0.785 l 2.093,6.468 -5.513,4.027 c -0.217,0.166 -0.372,0.378 -0.454,0.637 -0.083,0.259 -0.083,0.513 0,0.767 0.082,0.26 0.237,0.471 0.454,0.625 0.224,0.159 0.478,0.235 0.749,0.235 l 2.795,-0.029 -1.822,3.202 -9.299,-1.875 0.284,-3.875 -0.749,-13.761 -1.657,-7.86 0.472,-4.781 c -0.324,-0.242 -0.649,-0.448 -0.973,-0.619 -0.43,-0.059 -0.772,-0.348 -1.013,-0.861 -0.296,-0.477 -0.42,-1.055 -0.378,-1.751 l -0.749,-4.782 1.673,-7.747 81.569,0 c 0.259,0.678 0.14,1.957 -0.361,3.844 -0.506,2.506 -0.955,4.994 -1.344,7.47 -0.158,1.162 -0.324,2.318 -0.484,3.467 -0.022,0.231 -0.057,0.448 -0.106,0.655 -0.188,1.173 -0.335,2.352 -0.453,3.532 l 1.297,7.842 -3.326,2.499 -0.424,0.154 -0.531,2.435 c 0.472,1.426 0.89,2.859 1.268,4.315 l 1.792,3.06 L 0,0 Z" style="fill:#235125;fill-opacity:1;fill-rule:nonzero;stroke:none" id="path22" inkscape:connector-curvature="0"></path></g><g id="g24" transform="translate(432.7627,508.2603)"><path d="M 0,0 C -0.224,0.166 -0.371,0.378 -0.453,0.643 L -1.621,4.328 -2.83,0.625 C -2.912,0.371 -3.065,0.159 -3.284,0 -3.508,-0.152 -3.756,-0.235 -4.033,-0.229 l -3.797,0.03 3.113,-2.265 c 0.219,-0.159 0.365,-0.372 0.453,-0.626 0.084,-0.259 0.084,-0.518 0,-0.783 l -1.189,-3.668 3.113,2.276 c 0.218,0.165 0.459,0.247 0.731,0.247 0.011,0.006 0.017,0.006 0.029,0 0.26,0 0.495,-0.076 0.708,-0.229 l 3.118,-2.276 -1.197,3.65 c -0.088,0.265 -0.088,0.524 0,0.783 0.084,0.254 0.23,0.467 0.449,0.626 l 3.125,2.265 -3.874,-0.03 C 0.472,-0.235 0.225,-0.158 0,0" style="fill:#235125;fill-opacity:1;fill-rule:nonzero;stroke:none" id="path26" inkscape:connector-curvature="0"></path></g><g id="g28" transform="translate(491.5889,462.9253)"><path d="m 0,0 c -0.426,0.431 -0.943,0.643 -1.545,0.643 l -79.633,0 c -0.607,0 -1.121,-0.212 -1.551,-0.643 -0.425,-0.425 -0.636,-0.938 -0.636,-1.545 l 0,-21.285 c 0,-0.601 0.211,-1.12 0.636,-1.544 0.43,-0.432 0.944,-0.643 1.551,-0.643 l 79.633,0 c 0.602,0 1.119,0.211 1.545,0.643 0.43,0.424 0.643,0.943 0.643,1.544 l 0,21.285 C 0.643,-0.938 0.43,-0.425 0,0" style="fill:#000000;fill-opacity:1;fill-rule:nonzero;stroke:none" id="path30" inkscape:connector-curvature="0"></path></g><g id="g32" transform="translate(491.5889,435.0962)"><path d="m 0,0 c -0.426,0.43 -0.943,0.642 -1.545,0.642 l -79.633,0 c -0.607,0 -1.121,-0.212 -1.551,-0.642 -0.425,-0.426 -0.636,-0.938 -0.636,-1.546 l 0,-3.591 c 0,-0.518 0.164,-0.984 0.5,-1.39 0.331,-0.402 0.756,-0.649 1.262,-0.749 1.775,-0.355 3.562,-0.726 5.361,-1.126 l 0.017,0 c 3.873,-0.821 7.571,-1.976 11.09,-3.468 l 0.012,0 c 3.915,-1.62 7.389,-3.898 10.418,-6.811 1.964,-1.874 3.244,-4.002 3.851,-6.396 0.03,-0.118 0.058,-0.23 0.083,-0.348 0.488,-1.863 0.429,-3.703 -0.167,-5.525 -0.035,-0.117 -0.07,-0.229 -0.111,-0.335 -0.064,-0.207 -0.131,-0.407 -0.195,-0.609 -0.206,-0.629 -0.436,-1.255 -0.695,-1.874 l 0.017,0.012 c -1.474,-3.52 -2.713,-7.106 -3.714,-10.76 l 0,-0.018 c -1.362,-5.041 -1.799,-10.117 -1.315,-15.23 0.347,-3.797 1.668,-7.188 3.969,-10.166 l 0,0.013 c 0.159,-0.207 0.324,-0.414 0.5,-0.607 0.083,0.047 0.166,0.1 0.248,0.152 l 0.017,0.018 c 0.549,0.391 0.949,0.896 1.186,1.516 1.085,2.89 2.488,5.613 4.204,8.171 l -0.019,-0.017 c 0.125,0.195 0.26,0.383 0.391,0.578 -0.555,1.232 -0.832,2.623 -0.826,4.168 -0.006,2.258 0.572,4.18 1.733,5.768 l 0.018,0 c 1.256,1.738 2.77,2.582 4.54,2.546 l 0.035,0 c 1.764,0.036 3.278,-0.808 4.546,-2.546 l 0,0.011 c 0.489,-0.654 0.878,-1.367 1.175,-2.14 0.158,0.041 0.323,0.076 0.494,0.111 0.023,0.006 0.041,0.012 0.064,0.018 2.03,0.449 4.098,0.543 6.197,0.277 0.92,-0.111 1.817,-0.313 2.708,-0.588 -0.038,0.906 -0.114,1.82 -0.237,2.729 -0.484,3.113 -1.221,6.168 -2.199,9.156 l 0,-0.018 c -0.956,2.926 -1.94,5.832 -2.954,8.72 -0.071,0.202 -0.142,0.402 -0.212,0.609 -0.619,1.662 -0.85,3.377 -0.69,5.152 0.024,0.237 0.047,0.472 0.077,0.708 0.023,0.118 0.052,0.23 0.088,0.348 0.236,0.884 0.601,1.727 1.079,2.535 1.993,3.319 4.705,5.955 8.141,7.907 6.694,3.78 13.84,6.221 21.446,7.329 0.536,0.082 0.984,0.329 1.343,0.749 0.354,0.407 0.532,0.884 0.532,1.42 l 0,3.591 C 0.643,-0.938 0.43,-0.426 0,0" style="fill:#000000;fill-opacity:1;fill-rule:nonzero;stroke:none" id="path34" inkscape:connector-curvature="0"></path></g><g id="g36" transform="translate(434.9795,504.7935)"><path d="M 0,0 6.279,4.559 -1.479,4.48 -3.826,11.887 -6.232,4.48 -13.932,4.546 -7.67,0 -10.047,-7.34 -3.826,-2.783 2.424,-7.34 0,0 Z" style="fill:#000000;fill-opacity:1;fill-rule:nonzero;stroke:none" id="path38" inkscape:connector-curvature="0"></path></g><g id="g40" transform="translate(438.8418,361.8242)"><path d="m 0,0 c -0.638,-0.16 -1.291,-0.199 -1.958,-0.131 1.492,-0.389 2.996,-0.699 4.5,-0.937 2.723,-0.407 5.459,-0.477 8.201,-0.2 1.756,0.17 3.49,0.502 5.189,0.985 1.067,0.312 2.087,0.713 3.077,1.203 l 0.047,0.076 c 0.09,0.047 0.183,0.088 0.278,0.143 1.639,0.841 3.089,1.939 4.345,3.295 1.256,1.339 2.323,2.818 3.201,4.439 0.838,1.563 1.474,3.215 1.904,4.947 0.426,1.674 0.661,3.373 0.703,5.094 0.035,1.811 -0.083,3.621 -0.355,5.42 C 29.038,23.029 28.95,21.727 28.861,20.43 28.761,18.809 28.308,17.293 27.506,15.885 25.973,13.184 24.134,10.719 21.993,8.479 20.619,7.064 19.104,5.795 17.446,4.688 15.407,3.32 13.231,2.217 10.913,1.373 9.558,0.879 8.166,0.471 6.745,0.154 5.2,-0.184 3.644,-0.412 2.075,-0.531 c 0.231,0.023 0.46,0.058 0.684,0.107 1.545,0.276 3.072,0.631 4.582,1.061 C 5.613,1.043 4.499,1.492 3.997,1.998 5.637,1.592 7.028,1.445 8.166,1.563 c 1.138,0.117 2.129,0.33 2.972,0.625 0.843,0.294 1.769,0.742 2.777,1.355 -2.949,0.412 -4.953,1.039 -6.014,1.875 2.842,-0.508 5.613,-0.625 8.326,-0.359 0.442,0.3 0.872,0.625 1.295,0.966 1.063,0.891 2.088,1.823 3.061,2.801 -3.461,0.494 -6.154,1.379 -8.071,2.654 3.485,-0.791 7.009,-0.726 10.571,0.2 l 1.733,2.347 c -3.337,0.571 -6.054,1.557 -8.154,2.953 3.408,-0.447 6.786,-0.394 10.142,0.153 l 0.483,0.89 c -0.141,0.055 -0.276,0.108 -0.407,0.155 -0.955,0.347 -1.934,0.59 -2.936,0.718 -1.816,0.237 -3.621,0.161 -5.407,-0.23 -2.382,-0.5 -4.528,-1.496 -6.45,-3.006 C 10.478,14.404 9.11,12.924 7.978,11.227 6.38,8.832 5.077,6.279 4.056,3.572 3.638,2.459 2.937,1.557 1.964,0.873 1.374,0.461 0.72,0.172 0,0" style="fill:#235125;fill-opacity:1;fill-rule:nonzero;stroke:none" id="path42" inkscape:connector-curvature="0"></path></g><g id="g44" transform="translate(173.9785,366.2813)"><path d="m 0,0 0,4.398 c 4.153,0.315 6.51,0.647 7.069,0.995 0.418,0.211 0.733,0.576 0.942,1.099 0.349,0.873 0.602,4.487 0.76,10.84 0.157,6.354 0.235,12.514 0.235,18.484 0,11.135 -0.113,19.094 -0.341,23.877 -0.227,4.782 -0.594,7.453 -1.1,8.012 C 7.06,68.262 5.55,68.629 3.036,68.804 L 0,69.066 0,73.464 5.917,73.255 c 3.665,-0.105 6.579,-0.157 8.744,-0.157 2.967,0 7.75,0.072 14.348,0.22 3.56,0.097 6.178,0.146 7.853,0.146 6.248,0 10.866,-0.591 13.85,-1.773 2.985,-1.182 5.254,-2.973 6.808,-5.372 1.552,-2.399 2.33,-5.389 2.33,-8.969 0,-6.468 -2.296,-11.883 -6.886,-16.246 -4.59,-4.363 -10.429,-6.545 -17.516,-6.545 -0.907,0 -1.867,0.068 -2.879,0.207 -1.013,0.139 -2.094,0.329 -3.246,0.571 -0.594,1.246 -1.222,2.456 -1.885,3.633 l 1.204,1.297 c 0.767,-0.159 1.474,-0.287 2.121,-0.382 0.645,-0.094 1.23,-0.142 1.754,-0.142 3.525,0 6.405,1.213 8.639,3.639 2.234,2.426 3.352,5.821 3.352,10.185 0,4.851 -1.155,8.474 -3.466,10.865 -2.31,2.39 -5.704,3.587 -10.185,3.587 -1.819,0 -3.955,-0.262 -6.404,-0.786 -0.349,-10.743 -0.524,-19.847 -0.524,-27.31 0,-2.511 0.139,-10.517 0.42,-24.015 0.104,-5.336 0.278,-8.406 0.523,-9.207 0.174,-0.594 0.506,-1.012 0.994,-1.256 0.768,-0.384 3.736,-0.732 8.903,-1.047 L 34.769,0 C 28.589,0.244 23.388,0.367 19.165,0.367 17.279,0.367 10.892,0.244 0,0" style="fill:#000000;fill-opacity:1;fill-rule:nonzero;stroke:none" id="path46" inkscape:connector-curvature="0"></path></g><g id="g48" transform="translate(284.1064,370.8887)"><path d="m 0,0 c 7.017,0 12.61,2.594 16.782,7.783 4.171,5.188 6.257,13.074 6.257,23.66 0,11.11 -2.391,19.635 -7.174,25.574 -3.875,4.787 -9.844,7.18 -17.907,7.18 -7.54,0 -13.379,-2.499 -17.515,-7.495 -4.136,-4.995 -6.205,-12.681 -6.205,-23.057 0,-7.477 1.133,-13.809 3.403,-18.999 2.269,-5.187 5.158,-8.925 8.666,-11.212 C -10.185,1.145 -5.621,0 0,0 m -1.99,-5.654 c -12.881,0 -22.742,3.306 -29.584,9.922 -6.842,6.615 -10.264,15.716 -10.264,27.307 0,8.098 1.658,14.984 4.975,20.657 3.316,5.672 7.915,10.027 13.798,13.064 5.881,3.037 13.448,4.556 22.698,4.556 8.902,0 16.18,-1.458 21.836,-4.373 5.654,-2.915 10.01,-6.964 13.064,-12.147 3.054,-5.184 4.581,-11.546 4.581,-19.086 0,-8.17 -1.675,-15.23 -5.026,-21.182 C 30.736,7.113 26.016,2.506 19.924,-0.758 13.832,-4.023 6.527,-5.654 -1.99,-5.654" style="fill:#000000;fill-opacity:1;fill-rule:nonzero;stroke:none" id="path50" inkscape:connector-curvature="0"></path></g><g id="g52" transform="translate(333.8604,366.2813)"><path d="m 0,0 0,4.398 c 4.05,0.35 6.371,0.682 6.965,0.995 0.384,0.211 0.662,0.541 0.838,0.996 0.347,0.838 0.593,3.664 0.732,8.482 0.175,7.469 0.262,13.352 0.262,17.647 0,5.793 -0.07,13.159 -0.209,22.096 C 8.448,61.281 8.117,65.365 7.594,66.867 7.453,67.32 7.174,67.669 6.756,67.914 6.196,68.262 3.945,68.647 0,69.066 l 0,4.398 C 7.227,73.22 11.887,73.098 13.981,73.098 l 26.234,0.366 c 5.689,0 9.835,-0.548 12.435,-1.647 2.601,-1.098 4.661,-2.859 6.18,-5.281 1.518,-2.422 2.277,-5.272 2.277,-8.548 0,-4.183 -1.212,-7.851 -3.639,-11.006 -2.427,-3.154 -6.642,-5.951 -12.646,-8.391 L 55.976,21.783 64.668,8.902 C 66.309,6.807 67.529,5.541 68.333,5.105 69.136,4.668 70.445,4.434 72.26,4.398 l 0,-4.031 -3.089,-0.053 C 60.304,0.244 54.596,0.141 52.049,0 49.012,4.852 44.473,11.887 38.435,21.102 l -10.787,16.39 c 0.314,0.592 0.576,1.221 0.786,1.884 1.395,-0.174 2.425,-0.261 3.088,-0.261 3.248,0 6.441,1.311 9.583,3.934 3.141,2.623 4.712,6.365 4.712,11.226 0,4.231 -1.243,7.519 -3.726,9.862 -2.486,2.343 -6.212,3.515 -11.181,3.515 -1.575,0 -3.71,-0.123 -6.404,-0.366 L 24.162,51.826 23.721,32.227 c 0,-4.438 0.174,-10.116 0.521,-17.034 0.278,-5.205 0.555,-8.123 0.832,-8.752 0.208,-0.453 0.59,-0.82 1.147,-1.099 0.728,-0.42 3.09,-0.735 7.082,-0.944 L 33.303,0 C 27.029,0.244 21.47,0.367 16.625,0.367 11.467,0.367 5.926,0.244 0,0" style="fill:#000000;fill-opacity:1;fill-rule:nonzero;stroke:none" id="path54" inkscape:connector-curvature="0"></path></g><g id="g56" transform="translate(505.8076,366.2813)"><path d="m 0,0 0,2.723 c 1.92,0.908 3.734,1.972 5.445,3.195 0.453,9.459 0.682,19.32 0.682,29.583 0,8.065 -0.088,15.674 -0.262,22.831 -0.105,5.096 -0.349,8.028 -0.733,8.796 -0.175,0.454 -0.532,0.794 -1.073,1.021 -0.542,0.227 -3.082,0.532 -7.62,0.917 l 0,4.398 c 6.737,-0.175 12.987,-0.261 18.747,-0.261 5.584,0 10.873,0.086 15.865,0.261 l 0,-4.398 c -4.793,-0.315 -7.553,-0.733 -8.282,-1.257 -0.453,-0.314 -0.773,-0.952 -0.964,-1.911 -0.192,-0.96 -0.338,-6.606 -0.443,-16.94 L 21.05,23.459 c 0,-4.783 0.122,-10.316 0.366,-16.6 4.555,-0.244 7.928,-0.367 10.119,-0.367 6.572,0 12.1,0.526 16.586,1.572 0.926,3.147 1.832,6.899 2.723,11.258 l 4.607,0 C 54.664,14.23 53.966,7.914 53.357,0.367 50.043,0.123 46.992,0 44.203,0 L 25.267,0.244 16.792,0.367 C 12.887,0.4 7.288,0.279 0,0" style="fill:#000000;fill-opacity:1;fill-rule:nonzero;stroke:none" id="path58" inkscape:connector-curvature="0"></path></g><g id="g60" transform="translate(604.5264,421.8521)"><path d="m 0,0 -11.053,-26.928 c 3.213,-0.176 6.758,-0.262 10.635,-0.262 4.051,0 7.928,0.086 11.629,0.262 L 0,0 Z m -34.355,-50.805 c 3.281,0.174 5.306,0.506 6.074,0.994 0.523,0.35 1.343,1.676 2.461,3.98 2.129,4.538 4.851,10.838 8.169,18.903 l 18.536,45.397 7.697,0 23.668,-56.237 c 3.07,-7.096 4.965,-10.982 5.682,-11.662 0.714,-0.68 2.922,-1.139 6.623,-1.375 l 0,-4.766 c -5.688,0.244 -11.062,0.367 -16.121,0.367 -6.037,0 -11.777,-0.123 -17.221,-0.367 l 0,4.766 c 4.153,0.17 6.553,0.4 7.197,0.689 0.647,0.291 0.969,0.811 0.969,1.561 0,0.648 -0.733,2.865 -2.198,6.65 l -3.454,8.746 c -4.334,0.104 -9.175,0.157 -14.523,0.157 -4.648,0 -8.878,-0.053 -12.688,-0.157 l -2.301,-5.883 c -0.629,-1.603 -1.395,-3.99 -2.302,-7.162 -0.21,-0.714 -0.313,-1.363 -0.313,-1.941 0,-0.785 0.338,-1.34 1.019,-1.664 0.68,-0.324 3.131,-0.656 7.354,-0.996 l 0,-4.766 c -3.42,0.244 -7.676,0.367 -12.768,0.367 -4.848,0 -8.701,-0.123 -11.56,-0.367 l 0,4.766 z" style="fill:#000000;fill-opacity:1;fill-rule:nonzero;stroke:none" id="path62" inkscape:connector-curvature="0"></path></g><g id="g64" transform="translate(656.5791,366.2813)"><path d="m 0,0 0,4.398 c 4.259,0.174 6.755,0.454 7.488,0.838 0.489,0.28 0.855,0.733 1.1,1.362 0.383,0.838 0.623,3.787 0.716,8.849 0.185,8.377 0.278,14.696 0.278,18.955 L 9.479,56.551 c 0,5.865 -0.192,9.25 -0.573,10.158 -0.209,0.524 -0.539,0.908 -0.99,1.152 C 7.221,68.28 4.582,68.681 0,69.066 l 0,4.398 c 5.457,-0.175 9.498,-0.261 12.123,-0.261 2.902,0 6.199,0.086 9.897,0.261 8.06,-10.286 17.173,-21.446 27.339,-33.48 6.764,-8.048 12.6,-14.695 17.508,-19.943 l 0,20.786 c 0,7.874 -0.088,14.662 -0.262,20.366 -0.14,3.393 -0.419,5.475 -0.837,6.245 -0.21,0.42 -0.595,0.718 -1.153,0.893 -0.558,0.175 -3.003,0.42 -7.331,0.735 l 0,4.398 c 3.798,-0.175 7.577,-0.261 11.339,-0.261 5.156,0 9.824,0.086 14.004,0.261 l 0,-4.398 C 78.74,68.821 76.397,68.542 75.6,68.228 75.147,68.053 74.783,67.809 74.506,67.495 74.228,67.181 74.02,66.779 73.881,66.291 73.638,65.453 73.494,62.764 73.451,58.227 L 73.255,37.282 73.15,16.18 c 0,-5.655 0.121,-11.311 0.367,-16.965 L 72.832,-1.518 C 68.588,-0.75 65.59,-0.244 63.836,0 54.863,9.941 44.023,22.428 31.315,37.462 24.891,45.066 19.707,51.466 15.762,56.665 l 0,-20.353 c 0,-5.544 0.086,-12.224 0.261,-20.037 0.105,-5.755 0.348,-9.068 0.733,-9.941 0.139,-0.383 0.4,-0.68 0.785,-0.889 0.663,-0.384 3.177,-0.732 7.541,-1.047 L 25.082,0 C 19.449,0.244 15.418,0.367 12.984,0.367 10.968,0.367 6.64,0.244 0,0" style="fill:#000000;fill-opacity:1;fill-rule:nonzero;stroke:none" id="path66" inkscape:connector-curvature="0"></path></g><g id="g68" transform="translate(773.6191,372.7734)"><path d="m 0,0 c 2.933,-0.523 5.935,-0.785 9.007,-0.785 7.783,0 13.719,1.117 17.803,3.348 4.084,2.232 7.39,5.886 9.921,10.96 2.532,5.075 3.797,11.311 3.797,18.705 0,9.731 -2.513,17.143 -7.54,22.235 -4.433,4.535 -11.676,6.802 -21.73,6.802 C 9.093,61.265 5.341,61.089 0,60.741 L -0.419,28.124 C -0.419,14.393 -0.28,5.02 0,0 m -21.206,-6.492 0,2.722 c 2.408,1.395 4.118,2.442 5.131,3.139 0.488,6.139 0.732,17.633 0.732,34.481 0,7.289 -0.078,13.385 -0.234,18.285 -0.158,4.901 -0.393,7.7 -0.707,8.398 -0.141,0.349 -0.367,0.61 -0.682,0.785 -0.523,0.279 -3.089,0.698 -7.697,1.256 l 0,4.398 c 5.271,-0.175 11.328,-0.262 18.17,-0.262 l 25.814,0.262 c 9.391,0 16.521,-1.187 21.391,-3.56 4.869,-2.375 8.735,-6.005 11.598,-10.892 2.862,-4.888 4.294,-10.821 4.294,-17.803 0,-8.973 -2.235,-16.703 -6.703,-23.196 C 45.433,5.027 39.987,0.402 33.563,-2.355 27.141,-5.113 20.281,-6.492 12.985,-6.492 l -19.844,0.367 c -3.177,0 -7.959,-0.123 -14.347,-0.367" style="fill:#000000;fill-opacity:1;fill-rule:nonzero;stroke:none" id="path70" inkscape:connector-curvature="0"></path></g><g id="g72" transform="translate(176.2041,345.4375)"><path d="m 0,0 0,-16.303 -0.02,-1.895 0.059,-1.642 c 0.144,-1.577 0.73,-2.496 1.758,-2.756 0.717,-0.196 1.257,-0.294 1.621,-0.294 0.391,0 0.593,-0.114 0.605,-0.343 0.027,-0.331 -0.201,-0.496 -0.683,-0.496 -0.221,0 -0.657,0.026 -1.309,0.078 -0.416,0.026 -1.093,0.039 -2.031,0.039 l -1.387,0.039 -1.523,-0.02 c -0.768,0 -1.348,-0.026 -1.738,-0.078 -0.508,-0.065 -0.879,-0.098 -1.114,-0.098 -0.338,0 -0.508,0.128 -0.508,0.382 0,0.242 0.215,0.395 0.645,0.458 1.016,0.156 1.709,0.729 2.08,1.718 0.371,0.988 0.557,2.771 0.557,5.348 l 0,11.845 c 0,2.733 -0.162,4.459 -0.489,5.182 -0.325,0.723 -1.138,1.154 -2.441,1.298 -0.352,0.026 -0.52,0.16 -0.508,0.399 0.014,0.307 0.268,0.46 0.762,0.46 0.248,0 0.58,-0.032 0.996,-0.097 0.82,-0.118 1.498,-0.176 2.031,-0.176 0.834,0 2.045,0.071 3.633,0.215 0.82,0.065 1.491,0.097 2.012,0.097 2.721,0 4.931,-0.654 6.631,-1.963 1.699,-1.308 2.549,-3.017 2.549,-5.126 0,-2.552 -1.042,-4.564 -3.125,-6.036 -1.563,-1.093 -3.216,-1.64 -4.961,-1.64 -0.821,0 -1.573,0.089 -2.256,0.267 -0.684,0.178 -1.012,0.369 -0.987,0.574 0.027,0.156 0.151,0.233 0.371,0.233 0.104,0 0.234,-0.02 0.389,-0.059 0.299,-0.09 0.779,-0.136 1.443,-0.136 1.871,0 3.368,0.515 4.491,1.547 1.124,1.032 1.685,2.404 1.685,4.115 0,1.971 -0.74,3.604 -2.221,4.898 C 5.535,1.327 3.658,1.974 1.385,1.974 0.864,1.974 0.508,1.875 0.313,1.68 0.117,1.484 0.02,1.113 0.02,0.566 L 0,0 Z" style="fill:#235125;fill-opacity:1;fill-rule:nonzero;stroke:none" id="path74" inkscape:connector-curvature="0"></path></g><g id="g76" transform="translate(210.1416,335.2041)"><path d="M 0,0 -3.066,7.734 -3.223,8.145 C -3.379,8.562 -3.549,8.776 -3.73,8.789 -3.822,8.802 -3.926,8.679 -4.043,8.418 l -3.809,-8.457 c -0.169,-0.364 -0.253,-0.606 -0.253,-0.723 0,-0.339 0.298,-0.508 0.898,-0.508 l 0.527,-0.019 5.899,0 c 0.65,0 0.976,0.163 0.976,0.488 0,0.091 -0.033,0.241 -0.097,0.449 L 0,0 Z m -0.234,-3.145 -7.071,0 c -0.965,0 -1.562,-0.079 -1.797,-0.235 -0.234,-0.156 -0.546,-0.678 -0.937,-1.565 l -1.281,-2.876 c -0.578,-1.319 -0.868,-2.297 -0.868,-2.936 0,-0.614 0.153,-1.057 0.459,-1.332 0.305,-0.273 0.909,-0.508 1.807,-0.704 0.391,-0.076 0.592,-0.229 0.606,-0.458 0.011,-0.215 -0.17,-0.323 -0.546,-0.323 -0.144,0 -0.365,0.007 -0.663,0.022 l -1.87,0.11 c -0.624,0.029 -1.345,0.044 -2.163,0.044 -0.376,0 -0.669,-0.009 -0.876,-0.028 -0.663,-0.073 -1.026,-0.109 -1.091,-0.109 -0.351,0 -0.526,0.12 -0.526,0.36 0,0.214 0.111,0.354 0.332,0.421 l 0.723,0.216 c 0.26,0.078 0.611,0.393 1.055,0.947 0.441,0.554 0.806,1.131 1.093,1.73 l 0.567,1.29 10.039,22.3 c 0.168,0.391 0.357,0.587 0.566,0.587 0.207,0 0.383,-0.189 0.528,-0.567 L 6.25,-7.767 6.68,-8.823 c 0.611,-1.577 1.119,-2.559 1.523,-2.944 0.402,-0.384 1.223,-0.687 2.461,-0.909 0.402,-0.076 0.598,-0.235 0.586,-0.476 -0.014,-0.216 -0.195,-0.325 -0.547,-0.325 -0.117,0 -0.365,0.013 -0.742,0.039 -0.678,0.066 -1.883,0.098 -3.613,0.098 -1.811,0 -2.944,-0.039 -3.399,-0.117 -0.273,-0.052 -0.476,-0.078 -0.605,-0.078 -0.34,0 -0.508,0.134 -0.508,0.4 0,0.203 0.162,0.337 0.488,0.401 l 0.606,0.137 c 0.65,0.13 0.976,0.574 0.976,1.33 0,0.692 -0.398,2.069 -1.191,4.129 l -0.977,2.584 c -0.273,0.718 -0.488,1.132 -0.644,1.242 -0.156,0.112 -0.6,0.167 -1.328,0.167" style="fill:#235125;fill-opacity:1;fill-rule:nonzero;stroke:none" id="path78" inkscape:connector-curvature="0"></path></g><g id="g80" transform="translate(235.7568,342.8291)"><path d="m 0,0 0,-14.644 c 0,-1.827 0.111,-3.034 0.332,-3.621 0.261,-0.666 0.583,-1.135 0.967,-1.41 0.385,-0.273 0.986,-0.47 1.806,-0.587 0.652,-0.089 0.977,-0.249 0.977,-0.477 0,-0.307 -0.201,-0.46 -0.605,-0.46 -0.196,0 -0.443,0.021 -0.743,0.065 -0.403,0.058 -1.093,0.086 -2.07,0.086 l -2.832,0.044 -2.305,-0.137 c -0.377,-0.039 -0.689,-0.058 -0.937,-0.058 -0.352,0 -0.528,0.134 -0.528,0.401 0,0.229 0.203,0.375 0.606,0.439 0.99,0.169 1.628,0.511 1.914,1.026 0.287,0.516 0.43,1.602 0.43,3.258 l 0,16.744 c 0,1.617 -0.186,2.706 -0.557,3.267 -0.371,0.561 -1.162,0.938 -2.373,1.134 -0.403,0.076 -0.611,0.23 -0.625,0.458 -0.013,0.282 0.176,0.421 0.566,0.421 0.105,0 0.222,-0.007 0.352,-0.021 0.951,-0.116 2.214,-0.174 3.789,-0.174 0.964,0 1.791,0.021 2.481,0.065 l 1.308,0.109 c 0.248,0.014 0.41,0.021 0.488,0.021 0.352,0 0.528,-0.121 0.528,-0.363 C 2.969,5.356 2.8,5.185 2.461,5.07 L 1.445,4.679 C 0.482,4.313 0,2.754 0,0" style="fill:#235125;fill-opacity:1;fill-rule:nonzero;stroke:none" id="path82" inkscape:connector-curvature="0"></path></g><g id="g84" transform="translate(273.2676,341.0439)"><path d="m 0,0 0,-16.367 c 0,-1.472 -0.032,-2.366 -0.098,-2.686 -0.065,-0.319 -0.247,-0.471 -0.547,-0.459 -0.195,0.013 -0.344,0.072 -0.449,0.176 L -1.523,-18.828 -17.988,0 -18.184,0.215 c -0.078,0.078 -0.169,0.117 -0.273,0.117 -0.247,0 -0.371,-0.294 -0.371,-0.88 l 0,-13.256 -0.02,-0.821 0.059,-1.388 c 0.091,-0.861 0.312,-1.453 0.664,-1.779 0.352,-0.326 1.042,-0.567 2.07,-0.724 0.43,-0.05 0.645,-0.216 0.645,-0.497 0,-0.254 -0.137,-0.382 -0.41,-0.382 -0.183,0 -0.378,0.013 -0.586,0.04 -0.144,0.026 -0.71,0.065 -1.699,0.117 l -1.993,0.097 -0.937,-0.035 c -0.508,0 -0.989,-0.03 -1.445,-0.089 -0.339,-0.047 -0.58,-0.071 -0.723,-0.071 -0.339,0 -0.521,0.121 -0.547,0.362 -0.013,0.192 0.169,0.35 0.547,0.478 1.094,0.378 1.833,0.883 2.217,1.515 0.383,0.631 0.576,1.652 0.576,3.059 l 0,13.291 c 0,2.255 -0.359,4.03 -1.074,5.326 -0.716,1.296 -1.751,2.036 -3.106,2.219 -0.351,0.051 -0.527,0.196 -0.527,0.439 0,0.241 0.143,0.362 0.429,0.362 0.066,0 0.169,-0.007 0.313,-0.02 l 0.801,-0.019 1.308,-0.039 0.313,0.019 c 0.312,0.013 0.554,0.02 0.723,0.02 0.325,0 0.651,-0.189 0.976,-0.567 l 17.969,-20.351 c 0.286,-0.325 0.469,-0.482 0.547,-0.469 0.13,0.013 0.202,0.137 0.215,0.371 l 0,9.668 0.019,2.637 -0.234,4.492 c -0.13,1.106 -0.452,1.892 -0.967,2.354 -0.515,0.461 -1.442,0.803 -2.783,1.025 -0.378,0.063 -0.567,0.223 -0.567,0.477 0,0.242 0.189,0.363 0.567,0.363 0.169,0 0.442,-0.019 0.82,-0.054 0.898,-0.094 2.103,-0.142 3.613,-0.142 0.808,0 1.452,0.04 1.934,0.118 0.417,0.078 0.735,0.117 0.957,0.117 0.339,0 0.52,-0.137 0.547,-0.41 C 2.396,7.136 2.266,7.012 1.992,6.934 1.198,6.738 0.674,6.413 0.42,5.957 0.166,5.501 0.039,4.648 0.039,3.398 l 0,-2.109 L 0,0 Z" style="fill:#235125;fill-opacity:1;fill-rule:nonzero;stroke:none" id="path86" inkscape:connector-curvature="0"></path></g><g id="g88" transform="translate(305.1338,346.4932)"><path d="m 0,0 -5.488,0 c -0.574,0 -0.935,-0.079 -1.084,-0.235 -0.151,-0.157 -0.225,-0.541 -0.225,-1.154 l 0,-19.172 0.02,-0.762 c 0.064,-1.527 0.918,-2.433 2.558,-2.72 0.455,-0.076 0.684,-0.223 0.684,-0.438 0,-0.282 -0.183,-0.421 -0.548,-0.421 -0.157,0 -0.477,0.039 -0.959,0.117 -0.248,0.039 -0.835,0.058 -1.762,0.058 l -1.428,0.02 -1.527,-0.02 c -0.548,0 -1.011,-0.019 -1.389,-0.058 -0.745,-0.078 -1.182,-0.117 -1.312,-0.117 -0.392,0 -0.587,0.139 -0.587,0.419 0,0.203 0.215,0.331 0.645,0.381 1.002,0.13 1.679,0.408 2.031,0.831 0.351,0.424 0.527,1.184 0.527,2.28 l 0,19.387 -0.019,0.508 c 0,0.47 -0.069,0.77 -0.205,0.9 C -10.205,-0.065 -10.521,0 -11.016,0 l -5.175,0 c -1.055,0 -1.821,-0.212 -2.295,-0.635 -0.476,-0.423 -0.844,-1.22 -1.104,-2.392 -0.117,-0.508 -0.293,-0.755 -0.527,-0.743 -0.235,0.013 -0.352,0.189 -0.352,0.526 0,0.272 0.078,0.772 0.235,1.499 0.195,0.933 0.293,1.707 0.293,2.316 0,0.597 0.068,0.99 0.205,1.178 0.136,0.188 0.426,0.282 0.87,0.282 l 21.033,0 c 0.716,0 1.149,-0.077 1.3,-0.233 0.149,-0.156 0.224,-0.616 0.224,-1.381 0,-0.766 0.033,-1.323 0.098,-1.674 C 3.854,-1.697 3.893,-2.015 3.906,-2.21 3.919,-2.599 3.782,-2.807 3.496,-2.832 3.262,-2.845 3.105,-2.644 3.027,-2.227 2.857,-1.302 2.584,-0.7 2.207,-0.42 1.829,-0.14 1.094,0 0,0" style="fill:#235125;fill-opacity:1;fill-rule:nonzero;stroke:none" id="path90" inkscape:connector-curvature="0"></path></g><g id="g92" transform="translate(324.168,342.8291)"><path d="m 0,0 0,-14.644 c 0,-1.827 0.11,-3.034 0.332,-3.621 0.261,-0.666 0.583,-1.135 0.967,-1.41 0.384,-0.273 0.986,-0.47 1.806,-0.587 0.652,-0.089 0.977,-0.249 0.977,-0.477 0,-0.307 -0.202,-0.46 -0.605,-0.46 -0.196,0 -0.443,0.021 -0.743,0.065 -0.403,0.058 -1.093,0.086 -2.07,0.086 l -2.832,0.044 -2.305,-0.137 c -0.378,-0.039 -0.69,-0.058 -0.937,-0.058 -0.352,0 -0.528,0.134 -0.528,0.401 0,0.229 0.203,0.375 0.606,0.439 0.989,0.169 1.628,0.511 1.914,1.026 0.286,0.516 0.43,1.602 0.43,3.258 l 0,16.744 c 0,1.617 -0.186,2.706 -0.557,3.267 -0.371,0.561 -1.162,0.938 -2.373,1.134 -0.403,0.076 -0.612,0.23 -0.625,0.458 -0.013,0.282 0.176,0.421 0.566,0.421 0.105,0 0.222,-0.007 0.352,-0.021 0.95,-0.116 2.214,-0.174 3.789,-0.174 0.964,0 1.79,0.021 2.481,0.065 L 1.953,5.928 C 2.2,5.942 2.363,5.949 2.441,5.949 2.793,5.949 2.969,5.828 2.969,5.586 2.969,5.356 2.8,5.185 2.461,5.07 L 1.445,4.679 C 0.481,4.313 0,2.754 0,0" style="fill:#235125;fill-opacity:1;fill-rule:nonzero;stroke:none" id="path94" inkscape:connector-curvature="0"></path></g><g id="g96" transform="translate(361.6787,341.0439)"><path d="m 0,0 0,-16.367 c 0,-1.472 -0.033,-2.366 -0.098,-2.686 -0.065,-0.319 -0.248,-0.471 -0.547,-0.459 -0.195,0.013 -0.345,0.072 -0.449,0.176 L -1.523,-18.828 -17.988,0 -18.184,0.215 c -0.078,0.078 -0.17,0.117 -0.273,0.117 -0.248,0 -0.371,-0.294 -0.371,-0.88 l 0,-13.256 -0.02,-0.821 0.059,-1.388 c 0.091,-0.861 0.312,-1.453 0.664,-1.779 0.352,-0.326 1.041,-0.567 2.07,-0.724 0.43,-0.05 0.645,-0.216 0.645,-0.497 0,-0.254 -0.137,-0.382 -0.41,-0.382 -0.183,0 -0.378,0.013 -0.586,0.04 -0.144,0.026 -0.71,0.065 -1.699,0.117 l -1.993,0.097 -0.937,-0.035 c -0.508,0 -0.99,-0.03 -1.445,-0.089 -0.339,-0.047 -0.581,-0.071 -0.723,-0.071 -0.339,0 -0.522,0.121 -0.547,0.362 -0.014,0.192 0.169,0.35 0.547,0.478 1.094,0.378 1.832,0.883 2.217,1.515 0.383,0.631 0.576,1.652 0.576,3.059 l 0,13.291 c 0,2.255 -0.359,4.03 -1.074,5.326 -0.717,1.296 -1.752,2.036 -3.106,2.219 -0.351,0.051 -0.527,0.196 -0.527,0.439 0,0.241 0.142,0.362 0.429,0.362 0.065,0 0.169,-0.007 0.313,-0.02 l 0.801,-0.019 1.308,-0.039 0.313,0.019 c 0.312,0.013 0.553,0.02 0.723,0.02 0.325,0 0.65,-0.189 0.976,-0.567 l 17.969,-20.351 c 0.286,-0.325 0.469,-0.482 0.547,-0.469 0.13,0.013 0.201,0.137 0.215,0.371 l 0,9.668 0.019,2.637 -0.234,4.492 c -0.131,1.106 -0.453,1.892 -0.967,2.354 -0.515,0.461 -1.442,0.803 -2.783,1.025 -0.378,0.063 -0.567,0.223 -0.567,0.477 0,0.242 0.189,0.363 0.567,0.363 0.169,0 0.442,-0.019 0.82,-0.054 0.898,-0.094 2.103,-0.142 3.613,-0.142 0.807,0 1.451,0.04 1.934,0.118 0.416,0.078 0.735,0.117 0.957,0.117 0.338,0 0.52,-0.137 0.547,-0.41 C 2.396,7.136 2.266,7.012 1.992,6.934 1.197,6.738 0.674,6.413 0.42,5.957 0.166,5.501 0.039,4.648 0.039,3.398 l 0,-2.109 L 0,0 Z" style="fill:#235125;fill-opacity:1;fill-rule:nonzero;stroke:none" id="path98" inkscape:connector-curvature="0"></path></g><g id="g100" transform="translate(396.7861,328.4268)"><path d="m 0,0 0,4.395 c 0,0.793 -0.172,1.334 -0.518,1.621 -0.344,0.286 -1.038,0.468 -2.08,0.547 -0.507,0.05 -0.767,0.215 -0.781,0.497 -0.013,0.241 0.209,0.362 0.666,0.362 L -1.93,7.403 -0.461,7.384 c 2.01,0 3.178,0.012 3.504,0.039 0.9,0.064 1.422,0.097 1.566,0.097 0.299,0 0.45,-0.122 0.45,-0.363 C 5.059,6.94 4.863,6.781 4.473,6.68 3.483,6.444 2.988,5.728 2.988,4.526 l 0.02,-0.625 0,-6.262 L 3.047,-2.987 2.93,-3.28 C 2.852,-3.347 2.663,-3.398 2.363,-3.438 2.012,-3.489 1.472,-3.724 0.742,-4.141 l -1.289,-0.761 c -2.539,-1.472 -5.266,-2.207 -8.183,-2.207 -3.907,0 -7.11,1.253 -9.61,3.759 -2.5,2.507 -3.75,5.713 -3.75,9.62 0,4.101 1.325,7.519 3.975,10.253 2.65,2.735 5.967,4.102 9.951,4.102 1.537,0 3.168,-0.222 4.893,-0.664 1.725,-0.442 3.102,-0.996 4.13,-1.66 0.157,-0.105 0.268,-0.156 0.332,-0.156 0.092,0 0.215,0.051 0.372,0.156 l 0.468,0.351 c 0.092,0.078 0.183,0.118 0.274,0.118 0.234,0 0.351,-0.306 0.351,-0.918 0,-0.287 0.039,-0.73 0.117,-1.329 L 2.969,14.688 C 3.034,14.192 3.125,13.698 3.242,13.203 3.308,12.969 3.34,12.78 3.34,12.637 3.34,12.324 3.21,12.161 2.949,12.148 2.78,12.136 2.637,12.245 2.52,12.479 c -1.016,2.079 -2.581,3.766 -4.692,5.065 -2.111,1.299 -4.347,1.948 -6.705,1.948 -2.945,0 -5.35,-1.118 -7.214,-3.354 -1.864,-2.237 -2.796,-5.122 -2.796,-8.659 0,-3.796 1.072,-6.972 3.213,-9.526 2.143,-2.555 4.795,-3.832 7.959,-3.832 3.022,0 5.385,1.067 7.09,3.203 C -0.208,-2.155 0,-1.263 0,0" style="fill:#235125;fill-opacity:1;fill-rule:nonzero;stroke:none" id="path102" inkscape:connector-curvature="0"></path></g><g id="g104" transform="translate(448.0576,326.3564)"><path d="m 0,0 c -0.416,0.364 -0.684,0.605 -0.801,0.723 l -1.875,1.582 c -1.054,0.911 -2.444,2.249 -4.17,4.013 -1.724,1.765 -3.082,3.245 -4.072,4.444 -0.807,0.964 -1.489,1.445 -2.047,1.445 -0.869,0 -1.731,-0.526 -2.587,-1.58 -0.882,-1.065 -1.323,-2.38 -1.323,-3.94 0,-1.912 0.754,-3.739 2.264,-5.481 2.067,-2.38 4.708,-3.569 7.92,-3.569 2.666,0 4.896,0.788 6.691,2.363 m 3.105,1.504 c 3.881,-3.255 6.7,-4.883 8.458,-4.883 0.234,0 0.482,0.046 0.742,0.137 0.312,0.104 0.541,0.163 0.683,0.176 0.222,0.012 0.332,-0.083 0.332,-0.29 0,-0.322 -0.425,-0.637 -1.279,-0.946 -0.853,-0.308 -1.728,-0.464 -2.627,-0.464 -1.302,0 -2.486,0.247 -3.555,0.743 -1.067,0.495 -2.617,1.523 -4.648,3.085 -2.877,-2.551 -5.904,-3.828 -9.082,-3.828 -3.242,0 -5.928,0.931 -8.057,2.793 -2.129,1.863 -3.193,4.212 -3.193,7.051 0,2.344 0.82,4.329 2.461,5.957 0.898,0.911 2.162,1.563 3.789,1.953 -1.158,1.497 -1.738,2.969 -1.738,4.414 0,1.55 0.583,2.8 1.748,3.75 1.166,0.951 2.699,1.426 4.599,1.426 0.964,0 1.973,-0.202 3.028,-0.604 l 0.918,-0.352 0.195,-0.039 c 0.104,0.014 0.241,0.085 0.41,0.215 0.131,0.103 0.241,0.155 0.332,0.155 0.352,0.013 0.527,-0.454 0.527,-1.401 l 0.059,-1.071 0.098,-1.536 c 0.013,-0.324 0.019,-0.525 0.019,-0.602 0,-0.286 -0.142,-0.429 -0.429,-0.429 -0.169,0 -0.306,0.155 -0.411,0.465 -0.363,1.058 -1.107,2.004 -2.23,2.837 -1.125,0.832 -2.226,1.249 -3.304,1.249 -0.909,0 -1.688,-0.28 -2.339,-0.839 -0.649,-0.56 -0.974,-1.236 -0.974,-2.029 0,-0.742 0.306,-1.587 0.918,-2.537 0.61,-0.95 1.644,-2.178 3.1,-3.688 L -3.43,7.3 C -2.155,5.985 -0.348,4.327 1.992,2.324 2.656,3.46 2.988,4.726 2.988,6.122 2.988,7.153 2.787,8.016 2.383,8.707 1.979,9.399 1.433,9.811 0.742,9.94 l -0.918,0.177 c -0.39,0.076 -0.579,0.248 -0.566,0.515 0.013,0.178 0.157,0.266 0.431,0.266 0.104,0 0.281,-0.019 0.529,-0.058 0.391,-0.052 1.52,-0.078 3.387,-0.078 0.602,0 1.143,0.026 1.625,0.078 0.458,0.039 0.785,0.058 0.981,0.058 0.234,0 0.358,-0.102 0.371,-0.305 C 6.596,10.39 6.42,10.225 6.055,10.098 5.639,9.94 5.349,9.68 5.186,9.314 5.023,8.949 4.902,8.283 4.824,7.317 4.629,5.112 4.057,3.175 3.105,1.504" style="fill:#235125;fill-opacity:1;fill-rule:nonzero;stroke:none" id="path106" inkscape:connector-curvature="0"></path></g><g id="g108" transform="translate(495.0742,335.6729)"><path d="m 0,0 2.212,0 c 1.709,0 3.053,0.47 4.031,1.411 0.98,0.941 1.469,2.227 1.469,3.86 0,1.894 -0.666,3.453 -1.996,4.674 -1.332,1.222 -3.028,1.832 -5.09,1.832 -0.77,0 -1.301,-0.128 -1.595,-0.381 -0.294,-0.255 -0.44,-0.716 -0.44,-1.382 l 0.019,-0.647 0,-7.956 c 0,-0.614 0.082,-1.003 0.244,-1.166 C -0.982,0.081 -0.601,0 0,0 m 5.739,-0.424 5.391,-7.948 0.625,-0.936 c 1.666,-2.441 3.203,-3.707 4.609,-3.797 l 0.625,-0.041 c 0.235,-0.013 0.345,-0.105 0.332,-0.278 -0.013,-0.198 -0.302,-0.378 -0.869,-0.536 -0.566,-0.16 -1.208,-0.239 -1.924,-0.239 -1.172,0 -2.223,0.322 -3.154,0.967 -0.932,0.644 -1.879,1.696 -2.842,3.154 l -4.863,7.422 -0.273,0.429 c -0.313,0.535 -0.821,0.801 -1.524,0.801 l -2.598,0 -0.429,-0.079 c -0.157,-0.091 -0.235,-0.3 -0.235,-0.627 l 0,-6.113 0.02,-0.783 c 0,-1.124 0.055,-1.892 0.166,-2.303 0.11,-0.412 0.374,-0.781 0.791,-1.107 0.559,-0.445 1.426,-0.725 2.598,-0.843 0.468,-0.051 0.709,-0.198 0.722,-0.439 0.026,-0.254 -0.189,-0.382 -0.644,-0.382 -0.183,0 -0.567,0.029 -1.153,0.087 -0.534,0.058 -1.361,0.087 -2.48,0.087 l -1.875,0.022 -1.016,-0.02 c -0.443,0 -0.976,-0.032 -1.601,-0.097 -0.508,-0.052 -0.86,-0.079 -1.055,-0.079 -0.326,0 -0.488,0.134 -0.488,0.4 0,0.191 0.162,0.318 0.488,0.382 1.041,0.195 1.725,0.668 2.051,1.418 0.325,0.75 0.488,2.226 0.488,4.43 l 0,14.045 -0.039,2.035 c 0,2.034 -0.71,3.168 -2.129,3.403 l -0.918,0.137 c -0.417,0.077 -0.625,0.23 -0.625,0.458 0,0.268 0.221,0.402 0.664,0.402 0.104,0 0.56,-0.027 1.367,-0.078 0.469,-0.039 1.048,-0.059 1.739,-0.059 0.598,0 1.621,0.046 3.066,0.137 1.041,0.065 1.959,0.097 2.754,0.097 2.994,0 5.254,-0.563 6.777,-1.691 1.524,-1.127 2.285,-2.806 2.285,-5.034 0,-2.933 -1.608,-5.201 -4.824,-6.804" style="fill:#235125;fill-opacity:1;fill-rule:nonzero;stroke:none" id="path110" inkscape:connector-curvature="0"></path></g><g id="g112" transform="translate(527.0352,345.4717)"><path d="m 0,0 0,-7.88 c 0,-0.601 0.056,-0.965 0.166,-1.088 0.11,-0.125 0.446,-0.186 1.006,-0.186 l 3.008,0 c 1.367,0 2.448,0.078 3.242,0.234 0.703,0.144 1.159,0.332 1.367,0.566 0.208,0.235 0.398,0.782 0.566,1.641 0.067,0.325 0.234,0.482 0.499,0.469 0.254,-0.013 0.38,-0.189 0.38,-0.527 0,-0.09 -0.006,-0.233 -0.021,-0.427 -0.116,-1.261 -0.174,-2.41 -0.174,-3.449 0,-0.792 0.039,-1.579 0.117,-2.358 0.027,-0.26 0.039,-0.447 0.039,-0.564 0,-0.326 -0.126,-0.488 -0.38,-0.488 -0.279,0 -0.445,0.144 -0.499,0.43 L 9.2,-13.08 c -0.156,0.872 -0.469,1.465 -0.936,1.777 -0.468,0.313 -1.261,0.469 -2.378,0.469 l -4.307,0 c -0.637,0 -1.062,-0.065 -1.277,-0.196 -0.215,-0.13 -0.322,-0.391 -0.322,-0.783 L 0,-12.458 0,-19.657 c 0,-1.11 0.198,-1.801 0.595,-2.074 0.396,-0.275 1.4,-0.412 3.013,-0.412 5.11,0 8.393,1.153 9.849,3.457 0.147,0.222 0.294,0.339 0.44,0.352 0.241,0.013 0.361,-0.155 0.361,-0.506 0,-0.844 -0.476,-1.849 -1.426,-3.016 -1.145,-1.403 -2.591,-2.103 -4.336,-2.103 -0.378,0 -0.886,0.026 -1.523,0.078 -2.488,0.235 -4.544,0.352 -6.172,0.352 -2.279,0 -3.887,-0.078 -4.824,-0.235 -0.496,-0.09 -0.833,-0.136 -1.016,-0.136 -0.417,0 -0.625,0.139 -0.625,0.421 0,0.215 0.169,0.369 0.508,0.458 l 0.742,0.215 c 0.937,0.26 1.406,1.173 1.406,2.739 l 0.02,1.271 0,16.529 c 0,1.865 -0.205,3.12 -0.616,3.766 -0.41,0.645 -1.208,0.968 -2.392,0.968 -0.378,0 -0.567,0.121 -0.567,0.363 0,0.357 0.293,0.535 0.879,0.535 0.326,0 0.762,-0.032 1.309,-0.097 1.862,-0.208 4.102,-0.313 6.719,-0.313 1.589,0 2.995,0.026 4.219,0.078 L 9.336,3.17 c 0.768,0.026 1.237,0.052 1.406,0.078 0.352,0.052 0.612,0.078 0.781,0.078 0.43,0 0.645,-0.188 0.645,-0.564 0,-0.116 -0.02,-0.267 -0.059,-0.448 C 12.07,2.132 12.019,1.613 11.953,0.757 l -0.078,-1.148 c -0.066,-0.753 -0.133,-1.223 -0.199,-1.411 -0.067,-0.188 -0.212,-0.289 -0.439,-0.302 -0.252,-0.012 -0.378,0.183 -0.378,0.586 l 0,0.508 c 0,0.417 -0.078,0.814 -0.233,1.192 C 10.378,0.768 9.878,1.158 9.124,1.354 8.37,1.549 6.986,1.646 4.972,1.646 l -3.061,0 C 1.104,1.646 0.585,1.545 0.351,1.343 0.116,1.14 0,0.692 0,0" style="fill:#235125;fill-opacity:1;fill-rule:nonzero;stroke:none" id="path114" inkscape:connector-curvature="0"></path></g><g id="g116" transform="translate(559.6826,349.0518)"><path d="M 0,0 C 1.393,0 2.571,-0.202 3.535,-0.605 L 4.883,-1.172 C 5,-1.224 5.117,-1.25 5.234,-1.25 c 0.157,0 0.313,0.065 0.469,0.195 l 0.274,0.235 c 0.039,0.051 0.11,0.078 0.214,0.078 0.326,0.013 0.489,-0.306 0.489,-0.957 0,-0.222 0.084,-0.879 0.254,-1.973 l 0.312,-2.012 c 0.065,-0.429 0.098,-0.696 0.098,-0.8 0,-0.404 -0.14,-0.606 -0.418,-0.606 -0.213,0 -0.425,0.314 -0.637,0.941 -0.468,1.411 -1.418,2.574 -2.852,3.488 -1.435,0.914 -3.035,1.372 -4.8,1.372 -1.402,0 -2.574,-0.414 -3.514,-1.241 -0.941,-0.828 -1.412,-1.862 -1.412,-3.1 0,-1.095 0.306,-2.04 0.917,-2.835 0.532,-0.678 1.114,-1.173 1.745,-1.485 0.631,-0.315 2.182,-0.881 4.652,-1.701 4.811,-1.576 7.217,-4.159 7.217,-7.749 0,-2.434 -0.886,-4.424 -2.656,-5.973 -1.772,-1.548 -4.043,-2.322 -6.816,-2.322 -1.003,0 -2.107,0.143 -3.311,0.429 -1.205,0.287 -2.087,0.619 -2.647,0.996 -0.234,0.157 -0.39,0.323 -0.468,0.499 -0.078,0.175 -0.196,0.627 -0.352,1.357 -0.026,0.104 -0.189,0.696 -0.488,1.777 -0.339,1.172 -0.508,2.005 -0.508,2.5 0,0.391 0.133,0.579 0.399,0.567 0.238,-0.013 0.451,-0.333 0.636,-0.96 0.468,-1.619 1.454,-2.978 2.961,-4.074 1.506,-1.098 3.143,-1.646 4.908,-1.646 1.792,0 3.308,0.528 4.548,1.583 1.24,1.057 1.861,2.34 1.861,3.852 0,1.447 -0.573,2.666 -1.717,3.656 -0.585,0.508 -2.276,1.231 -5.071,2.17 -2.887,0.976 -4.932,2.055 -6.134,3.24 -1.203,1.184 -1.805,2.719 -1.805,4.605 0,2.108 0.784,3.826 2.354,5.153 C -4.496,-0.663 -2.475,0 0,0" style="fill:#235125;fill-opacity:1;fill-rule:nonzero;stroke:none" id="path118" inkscape:connector-curvature="0"></path></g><g id="g120" transform="translate(597.4277,346.4932)"><path d="m 0,0 -5.488,0 c -0.574,0 -0.935,-0.079 -1.084,-0.235 -0.15,-0.157 -0.225,-0.541 -0.225,-1.154 l 0,-19.172 0.02,-0.762 c 0.065,-1.527 0.918,-2.433 2.558,-2.72 0.456,-0.076 0.684,-0.223 0.684,-0.438 0,-0.282 -0.183,-0.421 -0.548,-0.421 -0.156,0 -0.477,0.039 -0.959,0.117 -0.248,0.039 -0.836,0.058 -1.762,0.058 l -1.428,0.02 -1.527,-0.02 c -0.549,0 -1.012,-0.019 -1.389,-0.058 -0.745,-0.078 -1.181,-0.117 -1.312,-0.117 -0.391,0 -0.587,0.139 -0.587,0.419 0,0.203 0.215,0.331 0.645,0.381 1.003,0.13 1.679,0.408 2.031,0.831 0.351,0.424 0.527,1.184 0.527,2.28 l 0,19.387 -0.019,0.508 c 0,0.47 -0.069,0.77 -0.205,0.9 C -10.205,-0.065 -10.521,0 -11.016,0 l -5.175,0 c -1.055,0 -1.82,-0.212 -2.295,-0.635 -0.476,-0.423 -0.843,-1.22 -1.104,-2.392 -0.117,-0.508 -0.293,-0.755 -0.527,-0.743 -0.235,0.013 -0.352,0.189 -0.352,0.526 0,0.272 0.078,0.772 0.235,1.499 0.195,0.933 0.293,1.707 0.293,2.316 0,0.597 0.068,0.99 0.205,1.178 0.136,0.188 0.426,0.282 0.87,0.282 l 21.033,0 c 0.717,0 1.149,-0.077 1.299,-0.233 0.15,-0.156 0.225,-0.616 0.225,-1.381 0,-0.766 0.033,-1.323 0.098,-1.674 C 3.854,-1.697 3.894,-2.015 3.906,-2.21 3.919,-2.599 3.782,-2.807 3.496,-2.832 3.262,-2.845 3.105,-2.644 3.027,-2.227 2.858,-1.302 2.585,-0.7 2.207,-0.42 1.829,-0.14 1.094,0 0,0" style="fill:#235125;fill-opacity:1;fill-rule:nonzero;stroke:none" id="path122" inkscape:connector-curvature="0"></path></g><g id="g124" transform="translate(622.4463,347.7822)"><path d="m 0,0 c -3.023,0 -5.424,-1.018 -7.203,-3.052 -1.779,-2.035 -2.668,-4.775 -2.668,-8.219 0,-3.94 1.137,-7.261 3.41,-9.966 2.275,-2.703 5.066,-4.056 8.377,-4.056 3.023,0 5.52,1.102 7.486,3.306 1.969,2.203 2.953,4.996 2.953,8.375 0,3.887 -1.179,7.128 -3.539,9.721 C 6.457,-1.297 3.52,0 0,0 m 1.262,1.27 c 4.074,0 7.418,-1.259 10.029,-3.777 2.609,-2.517 3.916,-5.742 3.916,-9.672 0,-4.163 -1.316,-7.578 -3.945,-10.246 -2.631,-2.668 -5.996,-4.001 -10.098,-4.001 -4.207,0 -7.607,1.275 -10.205,3.825 -2.598,2.551 -3.897,5.895 -3.897,10.033 0,1.796 0.342,3.575 1.026,5.338 0.683,1.762 1.603,3.237 2.764,4.42 1.222,1.249 2.773,2.242 4.648,2.977 1.875,0.734 3.795,1.103 5.762,1.103" style="fill:#235125;fill-opacity:1;fill-rule:nonzero;stroke:none" id="path126" inkscape:connector-curvature="0"></path></g><g id="g128" transform="translate(655.8115,335.6729)"><path d="m 0,0 2.211,0 c 1.709,0 3.054,0.47 4.032,1.411 0.98,0.941 1.468,2.227 1.468,3.86 0,1.894 -0.665,3.453 -1.996,4.674 -1.331,1.222 -3.027,1.832 -5.089,1.832 -0.771,0 -1.302,-0.128 -1.595,-0.381 C -1.263,11.141 -1.41,10.68 -1.41,10.014 l 0.019,-0.647 0,-7.956 c 0,-0.614 0.082,-1.003 0.245,-1.166 C -0.982,0.081 -0.602,0 0,0 m 5.738,-0.424 5.391,-7.948 0.625,-0.936 c 1.667,-2.441 3.203,-3.707 4.609,-3.797 l 0.625,-0.041 c 0.235,-0.013 0.346,-0.105 0.332,-0.278 -0.012,-0.198 -0.302,-0.378 -0.869,-0.536 -0.566,-0.16 -1.207,-0.239 -1.924,-0.239 -1.172,0 -2.222,0.322 -3.154,0.967 -0.931,0.644 -1.878,1.696 -2.842,3.154 l -4.863,7.422 -0.273,0.429 c -0.313,0.535 -0.821,0.801 -1.524,0.801 l -2.598,0 -0.429,-0.079 c -0.157,-0.091 -0.235,-0.3 -0.235,-0.627 l 0,-6.113 0.02,-0.783 c 0,-1.124 0.056,-1.892 0.166,-2.303 0.111,-0.412 0.375,-0.781 0.791,-1.107 0.56,-0.445 1.426,-0.725 2.598,-0.843 0.468,-0.051 0.71,-0.198 0.722,-0.439 0.027,-0.254 -0.188,-0.382 -0.644,-0.382 -0.182,0 -0.567,0.029 -1.153,0.087 -0.533,0.058 -1.36,0.087 -2.48,0.087 l -1.875,0.022 -1.016,-0.02 c -0.442,0 -0.976,-0.032 -1.601,-0.097 -0.508,-0.052 -0.86,-0.079 -1.055,-0.079 -0.325,0 -0.488,0.134 -0.488,0.4 0,0.191 0.163,0.318 0.488,0.382 1.042,0.195 1.726,0.668 2.051,1.418 0.326,0.75 0.488,2.226 0.488,4.43 l 0,14.045 -0.039,2.035 c 0,2.034 -0.709,3.168 -2.129,3.403 l -0.918,0.137 c -0.416,0.077 -0.625,0.23 -0.625,0.458 0,0.268 0.222,0.402 0.664,0.402 0.105,0 0.561,-0.027 1.367,-0.078 0.469,-0.039 1.049,-0.059 1.739,-0.059 0.599,0 1.621,0.046 3.066,0.137 1.042,0.065 1.96,0.097 2.754,0.097 2.995,0 5.254,-0.563 6.777,-1.691 1.524,-1.127 2.286,-2.806 2.286,-5.034 0,-2.933 -1.608,-5.201 -4.825,-6.804" style="fill:#235125;fill-opacity:1;fill-rule:nonzero;stroke:none" id="path130" inkscape:connector-curvature="0"></path></g><g id="g132" transform="translate(695.9951,335.2041)"><path d="M 0,0 -3.066,7.734 -3.223,8.145 C -3.379,8.562 -3.549,8.776 -3.73,8.789 -3.822,8.802 -3.926,8.679 -4.043,8.418 l -3.809,-8.457 c -0.169,-0.364 -0.253,-0.606 -0.253,-0.723 0,-0.339 0.298,-0.508 0.898,-0.508 l 0.527,-0.019 5.899,0 c 0.65,0 0.976,0.163 0.976,0.488 0,0.091 -0.033,0.241 -0.097,0.449 L 0,0 Z m -0.234,-3.145 -7.071,0 c -0.965,0 -1.562,-0.079 -1.797,-0.235 -0.234,-0.156 -0.546,-0.678 -0.937,-1.565 l -1.281,-2.876 c -0.578,-1.319 -0.868,-2.297 -0.868,-2.936 0,-0.614 0.153,-1.057 0.459,-1.332 0.305,-0.273 0.909,-0.508 1.807,-0.704 0.391,-0.076 0.592,-0.229 0.606,-0.458 0.011,-0.215 -0.17,-0.323 -0.546,-0.323 -0.144,0 -0.365,0.007 -0.663,0.022 l -1.87,0.11 c -0.624,0.029 -1.345,0.044 -2.163,0.044 -0.376,0 -0.669,-0.009 -0.876,-0.028 -0.663,-0.073 -1.026,-0.109 -1.091,-0.109 -0.351,0 -0.526,0.12 -0.526,0.36 0,0.214 0.111,0.354 0.332,0.421 l 0.723,0.216 c 0.26,0.078 0.611,0.393 1.055,0.947 0.441,0.554 0.806,1.131 1.093,1.73 l 0.567,1.29 10.039,22.3 c 0.168,0.391 0.357,0.587 0.566,0.587 0.207,0 0.383,-0.189 0.528,-0.567 L 6.25,-7.767 6.68,-8.823 c 0.611,-1.577 1.119,-2.559 1.523,-2.944 0.402,-0.384 1.223,-0.687 2.461,-0.909 0.402,-0.076 0.598,-0.235 0.586,-0.476 -0.014,-0.216 -0.195,-0.325 -0.547,-0.325 -0.117,0 -0.365,0.013 -0.742,0.039 -0.678,0.066 -1.883,0.098 -3.613,0.098 -1.811,0 -2.944,-0.039 -3.399,-0.117 -0.273,-0.052 -0.476,-0.078 -0.605,-0.078 -0.34,0 -0.508,0.134 -0.508,0.4 0,0.203 0.162,0.337 0.488,0.401 l 0.606,0.137 c 0.65,0.13 0.976,0.574 0.976,1.33 0,0.692 -0.398,2.069 -1.191,4.129 l -0.977,2.584 c -0.273,0.718 -0.488,1.132 -0.644,1.242 -0.156,0.112 -0.6,0.167 -1.328,0.167" style="fill:#235125;fill-opacity:1;fill-rule:nonzero;stroke:none" id="path134" inkscape:connector-curvature="0"></path></g><g id="g136" transform="translate(732.333,346.4932)"><path d="m 0,0 -5.488,0 c -0.574,0 -0.935,-0.079 -1.084,-0.235 -0.151,-0.157 -0.225,-0.541 -0.225,-1.154 l 0,-19.172 0.02,-0.762 c 0.064,-1.527 0.918,-2.433 2.558,-2.72 0.455,-0.076 0.684,-0.223 0.684,-0.438 0,-0.282 -0.183,-0.421 -0.548,-0.421 -0.157,0 -0.477,0.039 -0.959,0.117 -0.248,0.039 -0.835,0.058 -1.762,0.058 l -1.428,0.02 -1.527,-0.02 c -0.548,0 -1.011,-0.019 -1.389,-0.058 -0.745,-0.078 -1.182,-0.117 -1.312,-0.117 -0.392,0 -0.587,0.139 -0.587,0.419 0,0.203 0.215,0.331 0.645,0.381 1.002,0.13 1.679,0.408 2.031,0.831 0.351,0.424 0.527,1.184 0.527,2.28 l 0,19.387 -0.019,0.508 c 0,0.47 -0.069,0.77 -0.205,0.9 C -10.205,-0.065 -10.521,0 -11.016,0 l -5.175,0 c -1.055,0 -1.821,-0.212 -2.295,-0.635 -0.476,-0.423 -0.844,-1.22 -1.104,-2.392 -0.117,-0.508 -0.293,-0.755 -0.527,-0.743 -0.235,0.013 -0.352,0.189 -0.352,0.526 0,0.272 0.078,0.772 0.235,1.499 0.195,0.933 0.293,1.707 0.293,2.316 0,0.597 0.068,0.99 0.205,1.178 0.136,0.188 0.426,0.282 0.87,0.282 l 21.033,0 c 0.716,0 1.149,-0.077 1.3,-0.233 0.149,-0.156 0.224,-0.616 0.224,-1.381 0,-0.766 0.033,-1.323 0.098,-1.674 C 3.854,-1.697 3.893,-2.015 3.906,-2.21 3.919,-2.599 3.782,-2.807 3.496,-2.832 3.262,-2.845 3.105,-2.644 3.027,-2.227 2.857,-1.302 2.584,-0.7 2.207,-0.42 1.829,-0.14 1.094,0 0,0" style="fill:#235125;fill-opacity:1;fill-rule:nonzero;stroke:none" id="path138" inkscape:connector-curvature="0"></path></g><g id="g140" transform="translate(751.3672,342.8291)"><path d="m 0,0 0,-14.644 c 0,-1.827 0.11,-3.034 0.332,-3.621 0.261,-0.666 0.583,-1.135 0.967,-1.41 0.384,-0.273 0.986,-0.47 1.806,-0.587 0.652,-0.089 0.977,-0.249 0.977,-0.477 0,-0.307 -0.202,-0.46 -0.605,-0.46 -0.196,0 -0.443,0.021 -0.743,0.065 -0.403,0.058 -1.093,0.086 -2.07,0.086 l -2.832,0.044 -2.305,-0.137 c -0.378,-0.039 -0.69,-0.058 -0.937,-0.058 -0.352,0 -0.528,0.134 -0.528,0.401 0,0.229 0.203,0.375 0.606,0.439 0.989,0.169 1.628,0.511 1.914,1.026 0.286,0.516 0.43,1.602 0.43,3.258 l 0,16.744 c 0,1.617 -0.186,2.706 -0.557,3.267 -0.371,0.561 -1.162,0.938 -2.373,1.134 -0.403,0.076 -0.612,0.23 -0.625,0.458 -0.013,0.282 0.176,0.421 0.566,0.421 0.105,0 0.222,-0.007 0.352,-0.021 0.95,-0.116 2.214,-0.174 3.789,-0.174 0.964,0 1.79,0.021 2.481,0.065 L 1.953,5.928 C 2.2,5.942 2.363,5.949 2.441,5.949 2.793,5.949 2.969,5.828 2.969,5.586 2.969,5.356 2.8,5.185 2.461,5.07 L 1.445,4.679 C 0.481,4.313 0,2.754 0,0" style="fill:#235125;fill-opacity:1;fill-rule:nonzero;stroke:none" id="path142" inkscape:connector-curvature="0"></path></g><g id="g144" transform="translate(778.0859,347.7822)"><path d="m 0,0 c -3.024,0 -5.425,-1.018 -7.204,-3.052 -1.779,-2.035 -2.668,-4.775 -2.668,-8.219 0,-3.94 1.137,-7.261 3.411,-9.966 2.274,-2.703 5.066,-4.056 8.376,-4.056 3.023,0 5.52,1.102 7.487,3.306 1.968,2.203 2.952,4.996 2.952,8.375 0,3.887 -1.179,7.128 -3.538,9.721 C 6.457,-1.297 3.519,0 0,0 m 1.261,1.27 c 4.075,0 7.418,-1.259 10.029,-3.777 2.61,-2.517 3.916,-5.742 3.916,-9.672 0,-4.163 -1.315,-7.578 -3.945,-10.246 -2.631,-2.668 -5.996,-4.001 -10.098,-4.001 -4.206,0 -7.607,1.275 -10.205,3.825 -2.598,2.551 -3.896,5.895 -3.896,10.033 0,1.796 0.341,3.575 1.025,5.338 0.684,1.762 1.604,3.237 2.764,4.42 1.223,1.249 2.773,2.242 4.648,2.977 1.875,0.734 3.795,1.103 5.762,1.103" style="fill:#235125;fill-opacity:1;fill-rule:nonzero;stroke:none" id="path146" inkscape:connector-curvature="0"></path></g><g id="g148" transform="translate(827.3457,341.0439)"><path d="m 0,0 0,-16.367 c 0,-1.472 -0.032,-2.366 -0.098,-2.686 -0.065,-0.319 -0.247,-0.471 -0.547,-0.459 -0.195,0.013 -0.344,0.072 -0.449,0.176 L -1.523,-18.828 -17.988,0 -18.184,0.215 c -0.078,0.078 -0.169,0.117 -0.273,0.117 -0.247,0 -0.371,-0.294 -0.371,-0.88 l 0,-13.256 -0.02,-0.821 0.059,-1.388 c 0.091,-0.861 0.312,-1.453 0.664,-1.779 0.352,-0.326 1.042,-0.567 2.07,-0.724 0.43,-0.05 0.645,-0.216 0.645,-0.497 0,-0.254 -0.137,-0.382 -0.41,-0.382 -0.183,0 -0.378,0.013 -0.586,0.04 -0.144,0.026 -0.71,0.065 -1.699,0.117 l -1.993,0.097 -0.937,-0.035 c -0.508,0 -0.989,-0.03 -1.445,-0.089 -0.339,-0.047 -0.58,-0.071 -0.723,-0.071 -0.339,0 -0.521,0.121 -0.547,0.362 -0.013,0.192 0.169,0.35 0.547,0.478 1.094,0.378 1.833,0.883 2.217,1.515 0.383,0.631 0.576,1.652 0.576,3.059 l 0,13.291 c 0,2.255 -0.359,4.03 -1.074,5.326 -0.716,1.296 -1.751,2.036 -3.106,2.219 -0.351,0.051 -0.527,0.196 -0.527,0.439 0,0.241 0.143,0.362 0.429,0.362 0.066,0 0.169,-0.007 0.313,-0.02 l 0.801,-0.019 1.308,-0.039 0.313,0.019 c 0.312,0.013 0.554,0.02 0.723,0.02 0.325,0 0.651,-0.189 0.976,-0.567 l 17.969,-20.351 c 0.286,-0.325 0.469,-0.482 0.547,-0.469 0.13,0.013 0.202,0.137 0.215,0.371 l 0,9.668 0.019,2.637 -0.234,4.492 c -0.13,1.106 -0.452,1.892 -0.967,2.354 -0.515,0.461 -1.442,0.803 -2.783,1.025 -0.378,0.063 -0.567,0.223 -0.567,0.477 0,0.242 0.189,0.363 0.567,0.363 0.169,0 0.442,-0.019 0.82,-0.054 0.898,-0.094 2.103,-0.142 3.613,-0.142 0.808,0 1.452,0.04 1.934,0.118 0.417,0.078 0.735,0.117 0.957,0.117 0.339,0 0.52,-0.137 0.547,-0.41 C 2.396,7.136 2.266,7.012 1.992,6.934 1.198,6.738 0.674,6.413 0.42,5.957 0.166,5.501 0.039,4.648 0.039,3.398 l 0,-2.109 L 0,0 Z" style="fill:#235125;fill-opacity:1;fill-rule:nonzero;stroke:none" id="path150" inkscape:connector-curvature="0"></path></g><g id="g152" transform="translate(276.3643,294.3262)"></g><g id="g156" transform="translate(286.0654,297.2266)"></g><g id="g160" transform="translate(292.4639,288.9258)"></g><g id="g164" transform="translate(302.8047,295.7266)"></g><g id="g168" transform="translate(317.2344,294.1172)"></g><g id="g172" transform="translate(327.3447,295.5156)"></g><g id="g176" transform="translate(337.9639,295.5156)"></g><g id="g180" transform="translate(344.5234,299.0859)"></g><g id="g184" transform="translate(350.2832,288.9258)"></g><g id="g188" transform="translate(363.7236,297.2266)"></g><g id="g192" transform="translate(374.1924,288.5059)"></g><g id="g196" transform="translate(388.1025,301.166)"></g><g id="g200" transform="translate(403.4229,294.3262)"></g><g id="g204" transform="translate(411.5322,288.5059)"></g><g id="g208" transform="translate(423.2822,299.0859)"></g><g id="g212" transform="translate(430.0029,297.2266)"></g><g id="g216" transform="translate(444.8818,297.2266)"></g><g id="g220" transform="translate(448.1416,299.0859)"></g><g id="g224" transform="translate(454.8623,297.2266)"></g><g id="g228" transform="translate(465.542,290.0254)"></g><g id="g232" transform="translate(490.4014,286.8867)"></g><g id="g236" transform="translate(500.9209,299.0859)"></g><g id="g240" transform="translate(510.4014,297.2266)"></g><g id="g244" transform="translate(515.8408,301.166)"></g><g id="g248" transform="translate(531.9707,288.5059)"></g><g id="g252" transform="translate(545.001,297.2266)"></g><g id="g256" transform="translate(568.0908,294.1172)"></g><g id="g260" transform="translate(579.4404,295.4355)"></g><g id="g264" transform="translate(586.2002,288.9258)"></g><g id="g268" transform="translate(602.5596,293.2461)"></g><g id="g272" transform="translate(617.2197,301.166)"></g><g id="g276" transform="translate(620.8398,297.2266)"></g><g id="g280" transform="translate(627.2793,299.0859)"></g><g id="g284" transform="translate(638.4092,294.1172)"></g><g id="g288" transform="translate(645.7393,297.2266)"></g><g id="g292" transform="translate(656.8086,288.8867)"></g><g id="g296" transform="translate(671.5986,301.166)"></g><g id="g300" transform="translate(675.0586,284.1953)"></g><g id="g304" transform="translate(697.748,294.1172)"></g><g id="g308" transform="translate(704.0283,288.8867)"></g><g id="g312" transform="translate(716.4971,290.0254)"></g><g id="g316" transform="translate(734.8271,294.1172)"></g></g></g></g></svg>