<?xml version="1.0" encoding="utf-8"?>

<!DOCTYPE svg PUBLIC "-//W3C//DTD SVG 1.1//EN" "http://www.w3.org/Graphics/SVG/1.1/DTD/svg11.dtd">
<!-- Uploaded to: SVG Repo, www.svgrepo.com, Generator: SVG Repo Mixer Tools -->
<!-- <svg version="1.1" id="_x32_" xmlns="http://www.w3.org/2000/svg" xmlns:xlink="http://www.w3.org/1999/xlink" width="8px" height="8px" viewBox="0 0 512 512" xml:space="preserve">
	<style type="text/css">
		<![CDATA[
	.st0{fill:#000000;}
]]>
</style>
<g>
<path fill="#167F3F" class="" d="M480.013,31.996c-133.453-70.359-271.75-15.094-360.016,73.172C39.606,185.574,10.044,341.339,56.278,419.37
		l-56.281,56.281l36.359,36.344l56.281-56.266c78.031,46.219,233.797,16.672,314.188-63.718
		C495.106,303.746,550.372,165.433,480.013,31.996z M421.685,227.417l-107.656-2.516l-81.641,81.641l123.031,3.984l-1.234,38.063
		l-158.719-5.109l-64.188,64.172l-26.922-26.922l64.172-64.188l-5.109-158.719l38.063-1.234l3.969,123.031l81.641-81.641
		l-2.5-107.656l38.078-0.875l1.656,71.297l70.859-70.859l26.938,26.922l-70.859,70.875l71.313,1.656L421.685,227.417z"/>
</g>
</svg> -->

<svg width="31" height="27" viewBox="0 0 31 27" fill="none"
	xmlns="http://www.w3.org/2000/svg">
	<path d="M2.16551 24.6098C1.54168 24.7716 0.903171 24.8111 0.250977 24.7423C1.70986 25.1357 3.18047 25.4492 4.65109 25.6899C7.31364 26.1015 9.98891 26.1723 12.67 25.8922C14.3871 25.7203 16.0826 25.3845 17.7439 24.896C18.7872 24.5805 19.7845 24.1749 20.7526 23.6794L20.7985 23.6025C20.8865 23.555 20.9774 23.5135 21.0703 23.4579C22.673 22.6074 24.0908 21.4969 25.3189 20.1256C26.547 18.7714 27.5903 17.2756 28.4488 15.6363C29.2682 14.0556 29.8901 12.3849 30.3106 10.6332C30.7271 8.94027 30.9569 7.22202 30.998 5.48152C31.0322 3.65 30.9168 1.81949 30.6508 0.000110626C30.5589 1.3199 30.4729 2.63665 30.3859 3.94834C30.2881 5.58771 29.8451 7.12088 29.0609 8.54484C27.562 11.2764 25.7638 13.7694 23.6703 16.0347C22.3268 17.4658 20.8454 18.7492 19.2243 19.8687C17.2305 21.2522 15.1028 22.3677 12.8363 23.2213C11.5113 23.7209 10.1502 24.1335 8.76079 24.4541C7.25008 24.7959 5.72862 25.0265 4.19445 25.1468C4.42033 25.1236 4.64424 25.0882 4.86327 25.0386C6.37397 24.7595 7.86708 24.4005 9.34356 23.9656C7.65392 23.555 6.56465 23.1009 6.07379 22.5892C7.67738 22.9998 9.03751 23.1484 10.1502 23.0291C11.263 22.9108 12.232 22.6954 13.0563 22.397C13.8806 22.0997 14.786 21.6466 15.7716 21.0267C12.8881 20.61 10.9286 19.9759 9.89113 19.1304C12.67 19.6442 15.3795 19.7625 18.0323 19.4935C18.4645 19.1901 18.885 18.8614 19.2986 18.5165C20.338 17.6155 21.3402 16.6729 22.2916 15.6838C18.9074 15.1842 16.2742 14.2892 14.3998 12.9997C17.8074 13.7997 21.2532 13.734 24.7361 12.7975L26.4307 10.4239C23.1677 9.84642 20.511 8.84925 18.4577 7.43743C21.79 7.8895 25.093 7.8359 28.3745 7.2827L28.8468 6.38261C28.7089 6.32699 28.5769 6.27339 28.4488 6.22586C27.515 5.87493 26.5578 5.62917 25.578 5.49972C23.8023 5.26004 22.0374 5.3369 20.291 5.73233C17.9619 6.23799 15.8635 7.24528 13.9842 8.77239C12.4109 10.0426 11.0733 11.5394 9.96642 13.2556C8.40389 15.6777 7.12982 18.2597 6.13148 20.9973C5.72276 22.123 5.03732 23.0352 4.08592 23.7269C3.50901 24.1436 2.86953 24.4359 2.16551 24.6098Z" fill="#167F3F"/>
</svg>
